<?xml version="1.0" encoding="utf-8"?>
<!-- Generator: Adobe Illustrator 24.3.0, SVG Export Plug-In . SVG Version: 6.00 Build 0)  -->
<svg version="1.1" id="Calque_1" xmlns="http://www.w3.org/2000/svg" xmlns:xlink="http://www.w3.org/1999/xlink" x="0px" y="0px"
	 viewBox="0 0 3800 3800" style="enable-background:new 0 0 3800 3800;" xml:space="preserve">
<style type="text/css">
	.st0{fill:#1D1D1B;}
	.st1{fill:#FFFFFF;}
</style>
<g>
	<path d="M956.29,50c141.43,0.24,256.05,115.13,255.71,256.33c-0.34,141.63-114.89,255.9-256.3,255.67
		C813.88,561.77,699.42,446.71,700,304.97C700.58,163.91,815.31,49.77,956.29,50z M1121.48,469.5
		c60.56-57.93,88.89-159.87,49.78-253.57c-38.49-92.19-134.91-151.39-233.09-142.66c-104.29,9.27-188.39,82.61-210.39,183.79
		c-19.07,87.7,17.35,172.26,62.75,211.51c7.45-72.96,45.53-122.75,114.22-149.37c-50.06-37.24-49.18-99.3-17.41-135.51
		c32.63-37.18,88.58-41.95,126.56-10.45c18.91,15.68,30.19,35.97,32.55,60.33c3.45,35.67-10.76,64-39.44,85.57
		C1076.18,346.16,1114,395.9,1121.48,469.5z M950.75,539.31c51.62-0.02,94.47-13.16,133.98-38.44
		c10.18-6.51,14.12-13.51,13.88-25.99c-1.79-93.97-92.67-161.27-182.72-134.61c-60.96,18.05-101.69,73.08-102.41,137.32
		c-0.11,9.87,2.65,15.76,11.07,21.36C864.31,525.39,907.77,538.97,950.75,539.31z M955.64,175.21c-38.15,0.28-68.2,30.98-67.82,69.3
		c0.36,37.03,31.44,67.52,68.54,67.25c37.91-0.27,68.22-31.33,67.83-69.47C1023.79,205.07,993,174.93,955.64,175.21z"/>
</g>
<g>
	<path d="M1865,212.35l-1.51,0.01c-4.06,0.02-8.11,0.05-12.17,0.07c-16.48,0.1-33.53,0.2-50.29,0.06c-0.58-0.09-2.21-1.81-2.93-3.5
		c-10.58-24.88-21.22-50.23-31.51-74.74l-6.74-16.05c-1.04-2.46-2.07-4.93-3.1-7.4c-1.99-4.77-3.98-9.53-6.01-14.28
		c-5.81-13.65-16.2-20.57-30.88-20.57c-0.04,0-0.07,0-0.11,0c-2.42,0.01-4.84,0-7.19,0l-2.56,0c-0.02-0.02-0.04-0.03-0.07-0.05
		c-0.02-0.01-0.04-0.03-0.06-0.04c-7.74-18.5-18.56-25.71-38.51-25.71c-12.3,0.01-24.66,0.02-36.99,0.05
		c-29.35,0.06-59.7,0.12-89.55-0.18c-20.4-0.22-33.48,8.29-40.07,25.94l-2.35,0c-2.48,0-4.98,0-7.48,0
		c-14.8,0.01-25.22,6.9-30.99,20.59l-1.84,4.38c-14.86,35.28-30.23,71.75-45.15,107.71c-1.38,3.33-2.7,4.24-6.25,4.18
		c-13.09-0.17-26.4-0.15-39.27-0.12c-4.76,0.01-9.51,0.02-14.27,0.02H1350v71.54h16.76l0,74.83c0,51.73,0,103.46,0,155.19
		c0,26.59,17.13,43.78,43.63,43.78c63.71,0,127.41,0.01,191.12,0.01c67.67,0,135.36,0,203.03-0.01c26.36,0,43.4-17.08,43.4-43.51
		c0-55.01,0-110.01,0-165.02l0-64.97H1865V212.35z M1767.99,523.59c-3.76-3.63-10.11-3.66-13.87-0.05
		c-4.02,3.86-4.09,8.51-0.18,14.14h-36.87c0.08-0.2,0.16-0.4,0.25-0.6c0.95-2.31,1.93-4.7,2.25-7.27c0.29-2.29-1.69-5.05-3.47-6.71
		c-1.73-1.62-4.1-2.43-6.67-2.3c-2.81,0.15-5.43,1.4-7.18,3.42c-2.42,2.79-4.07,7.26,0.51,13.36h-36.83
		c1.12-1.7,2.33-3.61,2.39-5.71c0.08-2.84-1.45-6.48-3.72-8.84c-1.48-1.54-3.61-2.38-5.93-2.33c-2.82,0.04-5.62,1.3-7.49,3.37
		c-3.45,3.81-3.33,8.3,0.4,13.66h-36.96c0.08-0.19,0.16-0.39,0.25-0.59c0.94-2.21,1.91-4.5,2.22-6.95c0.38-2.97-2.56-6.17-3.15-6.79
		c-3.44-3.56-9.59-3.52-13.42,0.11c-5,4.74-3.12,10-0.31,14.17h-36.87c0.07-0.19,0.15-0.37,0.22-0.56c0.9-2.3,1.84-4.67,2.22-7.22
		c0.41-2.74-2.37-5.8-2.93-6.39c-1.67-1.74-4.01-2.71-6.59-2.72c-0.02,0-0.04,0-0.05,0c-2.73,0-5.36,1.08-7.21,2.98
		c-3.87,3.95-3.87,8.59-0.01,13.81h-36.86c1.09-1.66,2.27-3.53,2.44-5.6c0.26-3.11-1.47-6.64-3.18-8.59
		c-1.41-1.62-3.5-2.56-5.89-2.65c-2.81-0.11-5.64,0.96-7.59,2.86c-4.83,4.73-3.07,9.81-0.12,14.11h-36.88
		c0.08-0.17,0.15-0.35,0.23-0.52c0.98-2.21,1.98-4.49,2.33-6.95c0.41-2.96-2.55-6.2-3.15-6.82c-1.65-1.7-3.96-2.64-6.51-2.64
		c-0.01,0-0.02,0-0.03,0c-2.79,0.01-5.47,1.13-7.33,3.08c-2.64,2.76-4.53,7.3,0.17,13.76h-37.06c2.64-3.06,4.41-7.13,1.32-12.13
		c-2.61-4.22-7.02-5.75-11.8-4.07c-5.48,1.92-6.54,6.37-6.52,9.81c-3.25-3.18-5.04-7.19-5.69-12.61c-0.1-0.86-0.09-1.75-0.07-2.7
		c0.01-0.37,0.01-0.75,0.01-1.12l0-230.21h441.08l0,53.86c0,57.92-0.01,117.8,0.04,176.71c0,6.77-1.78,11.86-5.73,16.08
		c-0.23-4.12-1.62-8.99-8.08-10.18c-4.8-0.89-8.63,0.99-10.77,5.29c-2.4,4.81-0.73,8.5,1.91,11.37h-37.17
		C1772,532.07,1771.96,527.43,1767.99,523.59z M1405.68,235.09c-1.21,2.84-2.36,5.53-3.45,8.24c-1.37,3.41-1.48,6.64-0.32,9.35
		c1,2.33,2.89,4.1,5.47,5.13c5.48,2.17,10.6-0.39,13.34-6.7c0.43-0.99,0.87-1.98,1.3-2.97c1.64-3.7,3.33-7.54,4.69-11.44
		c1.06-3.05,2.33-3.97,5.59-3.97c0.07,0,0.15,0,0.22,0c15.18,0.18,30.61,0.16,45.53,0.13c5.33-0.01,10.67-0.02,16-0.02l46.59,0
		c78.97,0,160.63,0.01,240.95-0.11c0.01,0,0.02,0,0.04,0c3.96,0,5.43,0.97,6.53,4.32c1.53,4.63,3.56,9.13,5.53,13.49l0.64,1.43
		c2.45,5.44,7.76,7.86,12.92,5.88c5.37-2.06,7.74-7.72,5.63-13.45c-1.01-2.75-2.11-5.5-3.18-8.17c-0.41-1.03-0.82-2.05-1.22-3.08
		h36.24v30.57h-474.59v-30.57h36.39C1406.22,233.81,1405.95,234.46,1405.68,235.09z M1481.46,106.77c3.92-9.33,6-10.73,15.89-10.73
		l7.48,0c4.67,13,13.14,21.18,25.21,24.32c3.38,0.88,7.15,1.28,12.24,1.29c34.18,0.07,68.93,0.06,102.54,0.06l25.96,0
		c20.69,0,30.99-6.71,39.1-25.59c18.66-0.67,18.68-0.64,25.88,16.51l13.55,32.27c9.03,21.51,18.06,43.03,27.09,64.54
		c0.39,0.93,0.75,1.87,1.15,2.94h-340.43c0.4-1,0.76-1.9,1.14-2.8v0L1481.46,106.77z M1539.05,70.3L1539.05,70.3
		c2.75-0.14,5.59-0.11,8.33-0.08c1.19,0.01,2.38,0.03,3.57,0.03c0.01,0,0.02,0,0.03,0l30.62,0c30.62,0,61.23-0.01,91.85,0.01
		c10.53,0.01,17.47,5.97,17.69,15.18c0.21,8.97-6.17,15.7-15.17,15.99c-6.44,0.21-13.01,0.17-19.37,0.13
		c-2.61-0.02-5.21-0.03-7.82-0.03c-0.09,0-0.17,0-0.26,0c-9.68,0-19.36,0-29.04,0l-12.45,0c-6.65,0-13.32,0-19.98,0.01
		c-15.24,0.01-31,0.02-46.5-0.03c-9.82-0.03-16.62-5.99-16.93-14.83C1523.29,77.52,1529.64,70.79,1539.05,70.3z"/>
	<path d="M1478.98,309.74c0.1,0,0.19,0,0.29,0c2.65,0,5.13-0.98,6.99-2.77c1.91-1.83,2.98-4.32,3.02-7.02
		c0.04-2.66-1.03-5.3-2.93-7.23c-1.9-1.93-4.4-3-7.03-3.01c-0.01,0-0.02,0-0.02,0c-2.62,0-5.12,1.06-7.02,2.98
		c-1.91,1.93-2.99,4.56-2.97,7.22C1469.35,305.28,1473.6,309.6,1478.98,309.74z"/>
	<path d="M1735.43,495.08c-0.03,0-0.07,0-0.1,0c-5.35,0.05-9.7,4.31-9.89,9.69c-0.1,2.71,0.87,5.29,2.73,7.25
		c1.85,1.95,4.35,3.05,7.05,3.1c0.07,0,0.13,0,0.19,0c2.64,0,5.12-1.01,7-2.84c1.93-1.88,2.99-4.41,3.01-7.11
		c0.01-2.71-1.04-5.26-2.97-7.17C1740.57,496.12,1738.08,495.08,1735.43,495.08z"/>
	<path d="M1581.75,309.75c0.03,0,0.06,0,0.09,0c2.74-0.02,5.28-1.11,7.17-3.07c1.86-1.93,2.85-4.46,2.78-7.13
		c-0.14-5.21-4.64-9.72-9.84-9.84c-2.58-0.07-5.13,0.94-7.07,2.83c-1.96,1.9-3.09,4.53-3.1,7.2c-0.01,2.75,1.01,5.28,2.87,7.14
		C1576.51,308.74,1579.02,309.75,1581.75,309.75z"/>
	<path d="M1632.58,309.74c0.13,0,0.26,0.01,0.38,0.01c2.64,0,5.09-0.94,6.92-2.68c1.9-1.8,2.98-4.29,3.04-7.01
		c0.06-2.72-0.96-5.31-2.87-7.29c-1.87-1.94-4.35-3.02-6.98-3.05c-2.61-0.02-5.17,1.05-7.1,2.97c-1.95,1.93-3.06,4.54-3.05,7.15
		C1622.94,305.2,1627.18,309.55,1632.58,309.74z"/>
	<path d="M1684.2,495.08C1684.2,495.08,1684.2,495.08,1684.2,495.08c-2.64,0-5.24,1.12-7.16,3.07c-1.9,1.93-2.96,4.52-2.92,7.11
		c0.04,2.64,1.15,5.13,3.11,7.01c1.89,1.81,4.43,2.84,7,2.84c0.08,0,0.17,0,0.25,0c5.42-0.14,9.56-4.38,9.63-9.85
		c0.04-2.78-0.99-5.36-2.88-7.28C1689.39,496.12,1686.89,495.08,1684.2,495.08z"/>
	<path d="M1735.12,309.74c0.1,0,0.19,0,0.29,0c2.65,0,5.13-0.98,6.99-2.77c1.91-1.83,2.98-4.32,3.02-7.02
		c0.04-2.66-1.03-5.3-2.93-7.23c-1.9-1.93-4.4-3-7.03-3.01c-0.01,0-0.02,0-0.02,0c-2.62,0-5.12,1.06-7.02,2.98
		c-1.91,1.93-2.99,4.56-2.97,7.22C1725.49,305.28,1729.75,309.6,1735.12,309.74z"/>
	<path d="M1530.57,495.08c-2.67,0.03-5.2,1.01-7.06,2.88c-1.9,1.9-2.93,4.48-2.91,7.26c0.02,2.77,1.09,5.31,3.01,7.16
		c1.84,1.78,4.28,2.75,6.9,2.75c0.09,0,0.17,0,0.26,0c2.65-0.06,5.25-1.25,7.12-3.26c1.83-1.97,2.82-4.58,2.7-7.15
		C1540.34,499.44,1535.85,495.12,1530.57,495.08z"/>
	<path d="M1479.29,495.08c-0.05,0-0.09,0-0.14,0h0c-2.68,0.04-5.19,1.13-7.06,3.08c-1.88,1.96-2.87,4.53-2.79,7.24
		c0.15,5.37,4.47,9.64,9.83,9.72c0.05,0,0.1,0,0.16,0c2.65,0,5.14-1.02,7.02-2.87c1.92-1.89,2.98-4.42,2.98-7.12
		c0-2.71-1.06-5.25-3-7.16C1484.4,496.1,1481.92,495.08,1479.29,495.08z"/>
	<path d="M1453.26,335.55c0.14,0.01,0.27,0.01,0.41,0.01c2.44,0,4.89-0.98,6.77-2.73c2.01-1.87,3.21-4.45,3.28-7.08
		c0.08-2.67-0.91-5.21-2.77-7.14c-1.89-1.96-4.43-3.06-7.16-3.09c-0.04,0-0.07,0-0.11,0c-5.41,0-9.68,4.03-9.95,9.42
		c-0.14,2.72,0.8,5.33,2.64,7.35C1448.17,334.27,1450.62,335.43,1453.26,335.55z"/>
	<path d="M1504.54,335.55c0.13,0.01,0.27,0.01,0.4,0.01c2.48,0,4.86-0.96,6.73-2.72c1.98-1.87,3.15-4.48,3.2-7.16
		c0.05-2.75-0.94-5.31-2.79-7.21c-1.85-1.89-4.38-2.94-7.12-2.96c-0.02,0-0.04,0-0.05,0c-2.72,0-5.26,1.05-7.17,2.97
		c-1.89,1.9-2.92,4.42-2.89,7.09C1494.9,330.77,1499.34,335.34,1504.54,335.55z"/>
	<path d="M1427.9,495.08c-5.28,0.09-9.73,4.45-9.91,9.74c-0.09,2.58,0.92,5.18,2.77,7.13c1.88,1.98,4.49,3.14,7.14,3.18
		c0.05,0,0.11,0,0.16,0c2.65,0,5.12-0.99,6.97-2.81c1.9-1.87,2.95-4.43,2.95-7.2c0-2.77-1.06-5.34-2.98-7.22
		C1433.11,496.04,1430.57,495.04,1427.9,495.08z"/>
	<path d="M1761.56,469.43c-2.62-0.15-5.21,0.78-7.23,2.61c-2.01,1.82-3.23,4.39-3.33,7.04c-0.11,2.67,0.84,5.21,2.68,7.17
		c1.86,1.98,4.4,3.11,7.14,3.17c0.08,0,0.16,0,0.24,0c5.36,0,9.62-3.97,9.94-9.31c0.16-2.72-0.74-5.33-2.54-7.35
		C1766.68,470.76,1764.23,469.57,1761.56,469.43z"/>
	<path d="M1709.97,469.4c-2.62-0.03-5.17,0.97-7.09,2.85c-1.95,1.92-3.03,4.47-3.03,7.2c0,2.74,1.04,5.28,2.93,7.14
		c1.85,1.83,4.34,2.83,7.03,2.83c0.05,0,0.11,0,0.16,0c2.73-0.04,5.27-1.15,7.15-3.12c1.85-1.94,2.83-4.48,2.74-7.15
		C1719.69,473.86,1715.25,469.49,1709.97,469.4z"/>
	<path d="M1709.68,315.52c-5.46,0.07-9.68,4.22-9.82,9.66c-0.07,2.73,0.93,5.32,2.83,7.3c1.86,1.94,4.34,3.03,6.98,3.07
		c0.05,0,0.1,0,0.15,0c2.54,0,5.07-1.06,6.97-2.93c1.95-1.92,3.07-4.52,3.08-7.13c0-2.67-1.04-5.18-2.94-7.06
		C1715,316.52,1712.39,315.5,1709.68,315.52z"/>
	<path d="M1760.94,315.51c-5.38,0.05-9.75,4.27-9.94,9.62c-0.09,2.6,0.92,5.23,2.79,7.21c1.87,1.98,4.44,3.15,7.05,3.21
		c0.08,0,0.15,0,0.23,0c2.55,0,4.97-1,6.85-2.83c1.95-1.89,3.07-4.52,3.09-7.2c0.01-2.74-1.01-5.28-2.89-7.15
		C1766.24,316.51,1763.73,315.52,1760.94,315.51z"/>
	<polygon points="1760.94,315.51 1760.94,315.51 1760.94,315.51 	"/>
	<path d="M1504.59,469.41c-5.28,0.18-9.65,4.62-9.73,9.9c-0.04,2.68,0.97,5.2,2.85,7.11c1.9,1.94,4.46,3,7.2,3
		c2.73,0,5.26-1.04,7.12-2.93c1.87-1.89,2.88-4.45,2.84-7.2c-0.04-2.72-1.15-5.26-3.13-7.15
		C1509.78,470.29,1507.22,469.31,1504.59,469.41z"/>
	<path d="M1453.36,469.41c-5.35,0.18-9.58,4.53-9.65,9.91c-0.03,2.74,0.98,5.3,2.85,7.19c1.86,1.88,4.38,2.91,7.1,2.91
		c0.01,0,0.02,0,0.03,0c2.73-0.01,5.29-1.08,7.19-3.02c1.88-1.92,2.88-4.45,2.83-7.12c-0.05-2.64-1.21-5.23-3.17-7.09
		C1458.57,470.31,1456.01,469.32,1453.36,469.41z"/>
	<path d="M1632.98,463.88c0.01,0,0.03,0,0.04,0c2.64-0.01,5.12-1.08,7-3c1.92-1.96,2.95-4.55,2.91-7.28
		c-0.05-2.73-1.12-5.23-3.03-7.05c-1.92-1.83-4.53-2.8-7.28-2.71c-5.39,0.17-9.65,4.5-9.7,9.86c-0.02,2.61,1.07,5.22,2.99,7.16
		C1627.82,462.78,1630.4,463.88,1632.98,463.88z"/>
	<path d="M1574.72,460.91c1.89,1.92,4.38,2.97,7.02,2.97c0,0,0,0,0,0c2.6,0,5.18-1.11,7.09-3.05c1.92-1.94,2.99-4.56,2.96-7.17
		c-0.04-2.67-1.12-5.16-3.04-7.01c-1.95-1.88-4.52-2.86-7.29-2.81c-5.45,0.13-9.61,4.35-9.68,9.8
		C1571.75,456.37,1572.79,458.95,1574.72,460.91z"/>
	<path d="M1581.67,361.1c0.02,0,0.05,0,0.07,0c2.72,0,5.25-1.04,7.15-2.95c1.89-1.89,2.92-4.41,2.89-7.09
		c-0.02-2.64-1.15-5.23-3.1-7.12c-1.96-1.9-4.52-2.93-7.16-2.85c-2.66,0.06-5.15,1.17-6.99,3.11c-1.87,1.97-2.85,4.56-2.76,7.29
		C1571.96,356.93,1576.21,361.06,1581.67,361.1z"/>
	<path d="M1632.56,341.1c-5.28,0.24-9.6,4.72-9.63,9.99c-0.02,2.68,1.02,5.2,2.91,7.08c1.9,1.89,4.43,2.93,7.13,2.93
		c0.03,0,0.07,0,0.1,0c2.73-0.02,5.24-1.09,7.09-2.99c1.85-1.91,2.84-4.48,2.78-7.23c-0.06-2.72-1.2-5.24-3.2-7.11
		C1637.76,341.93,1635.22,340.97,1632.56,341.1z"/>
	<path d="M1761.03,438.07c2.66,0,5.11-0.96,6.96-2.71c1.9-1.81,2.97-4.31,3.01-7.04c0.05-2.68-1.02-5.34-2.92-7.28
		c-1.89-1.93-4.37-2.99-7-3c-2.56,0.01-5.17,1.09-7.09,3.02c-1.93,1.94-3.02,4.55-3,7.17c0.05,5.36,4.31,9.69,9.71,9.85
		C1760.81,438.07,1760.92,438.07,1761.03,438.07z"/>
	<path d="M1709.62,418.04c-5.27,0.11-9.65,4.53-9.77,9.84c-0.06,2.76,0.92,5.32,2.76,7.22c1.84,1.89,4.36,2.95,7.11,2.97
		c0.03,0,0.06,0,0.09,0c2.72,0,5.26-1.04,7.15-2.93c1.89-1.88,2.92-4.39,2.9-7.07c-0.01-2.62-1.15-5.22-3.12-7.14
		C1714.79,419.04,1712.16,417.97,1709.62,418.04z"/>
	<path d="M1607.36,418.04c-0.01,0-0.01,0-0.02,0c-5.26,0.01-9.72,4.34-9.96,9.65c-0.12,2.72,0.82,5.29,2.64,7.24
		c1.83,1.96,4.34,3.07,7.06,3.14c0.08,0,0.17,0,0.25,0c2.66,0,5.15-0.99,7.02-2.79c1.9-1.84,2.96-4.33,2.99-7.03
		c0.03-2.66-1.05-5.3-2.96-7.23C1612.48,419.1,1609.99,418.04,1607.36,418.04z"/>
	<path d="M1402.05,386.8c0.13,0,0.25,0.01,0.38,0.01c2.54,0,4.98-0.97,6.89-2.75c1.99-1.86,3.13-4.34,3.21-6.99
		c0.08-2.58-0.95-5.18-2.83-7.14c-1.9-1.98-4.49-3.13-7.12-3.17c-2.71-0.05-5.21,0.97-7.09,2.83c-1.91,1.89-2.96,4.46-2.95,7.24
		C1392.54,382.31,1396.64,386.59,1402.05,386.8z"/>
	<path d="M1504.62,418.04c-5.19,0.17-9.67,4.7-9.77,9.9c-0.05,2.67,0.95,5.19,2.82,7.11c1.9,1.94,4.46,3.02,7.2,3.03
		c0.01,0,0.02,0,0.03,0c2.75,0,5.28-1.03,7.13-2.9c1.86-1.87,2.86-4.42,2.84-7.17c-0.03-2.68-1.18-5.3-3.15-7.19
		C1509.75,418.94,1507.23,417.95,1504.62,418.04z"/>
	<path d="M1453.88,418.03c-2.61-0.07-5.13,0.94-7.07,2.83c-1.96,1.9-3.09,4.53-3.1,7.21c-0.01,2.75,1.01,5.28,2.87,7.14
		c1.85,1.84,4.37,2.86,7.09,2.86c0.03,0,0.06,0,0.09,0c2.74-0.02,5.29-1.11,7.17-3.07c1.86-1.93,2.85-4.46,2.78-7.13
		C1463.58,422.66,1459.08,418.16,1453.88,418.03z"/>
	<path d="M1556.45,366.77c-2.58-0.08-5.24,0.93-7.21,2.8c-1.97,1.86-3.13,4.43-3.19,7.05c-0.06,2.62,0.96,5.14,2.86,7.1
		c1.91,1.96,4.52,3.09,7.17,3.1c0.02,0,0.03,0,0.05,0c2.69,0,5.19-1.02,7.04-2.87c1.88-1.89,2.9-4.46,2.88-7.24
		C1566,371.21,1561.87,366.95,1556.45,366.77z"/>
	<path d="M1606.61,386.79c0.25,0.02,0.5,0.03,0.75,0.03c2.44,0,4.75-0.86,6.58-2.46c2.02-1.77,3.22-4.23,3.38-6.95
		c0.16-2.71-0.75-5.32-2.56-7.34c-1.8-2-4.27-3.18-6.94-3.3c-2.67-0.13-5.23,0.82-7.21,2.65c-2,1.85-3.15,4.36-3.24,7.07
		C1597.2,381.88,1601.26,386.4,1606.61,386.79z"/>
	<path d="M1658.65,366.76c-0.02,0-0.05,0-0.07,0c-5.33,0-9.67,4.18-9.9,9.55c-0.12,2.81,0.81,5.43,2.63,7.39
		c1.77,1.91,4.24,3.01,6.93,3.1c0.11,0,0.22,0.01,0.33,0.01c2.57,0,5.02-0.98,6.93-2.79c1.98-1.87,3.1-4.36,3.16-7
		c0.06-2.58-0.99-5.18-2.88-7.12C1663.88,367.92,1661.28,366.78,1658.65,366.76z"/>
	<path d="M1786.77,495.08c-0.04,0-0.08,0-0.12,0c-5.31,0-9.64,4.15-9.89,9.5c-0.13,2.81,0.79,5.44,2.6,7.4
		c1.76,1.92,4.22,3.03,6.91,3.13c0.12,0,0.25,0.01,0.37,0.01c2.55,0,4.99-0.97,6.89-2.76c1.99-1.86,3.12-4.34,3.2-6.99
		c0.08-2.58-0.96-5.18-2.84-7.14C1792,496.27,1789.4,495.12,1786.77,495.08z"/>
	<path d="M1812.29,386.8c0.07,0,0.15,0,0.22,0c5.43-0.12,9.58-4.34,9.67-9.82c0.04-2.78-0.97-5.37-2.85-7.29
		c-1.85-1.88-4.34-2.92-7.03-2.93c-0.01,0-0.02,0-0.03,0c-2.62,0-5.22,1.11-7.14,3.04c-1.91,1.92-2.98,4.51-2.95,7.1
		c0.03,2.64,1.12,5.13,3.08,7.02C1807.17,385.76,1809.72,386.8,1812.29,386.8z"/>
	<path d="M1574.72,409.57c1.89,1.92,4.38,2.98,7.02,2.98c0,0,0.01,0,0.01,0c2.6,0,5.17-1.1,7.08-3.02c1.92-1.94,3-4.56,2.96-7.18
		c-0.03-2.68-1.1-5.17-3-7.01c-1.94-1.87-4.51-2.86-7.31-2.8c-5.45,0.13-9.61,4.33-9.69,9.77
		C1571.75,405.04,1572.79,407.61,1574.72,409.57z"/>
	<path d="M1427.9,412.55c0.06,0,0.12,0,0.18,0c2.56,0,4.99-1,6.85-2.83c1.96-1.92,3.04-4.5,3.04-7.25c0-2.77-1.02-5.31-2.89-7.15
		c-1.87-1.84-4.43-2.82-7.19-2.79c-2.7,0.04-5.32,1.2-7.19,3.17c-1.85,1.95-2.82,4.47-2.72,7.09
		C1418.18,407.99,1422.72,412.46,1427.9,412.55z"/>
	<path d="M1402.43,335.55c0.01,0,0.02,0,0.03,0c2.61-0.01,5.2-1.13,7.12-3.09c1.91-1.95,2.98-4.55,2.94-7.13
		c-0.04-2.64-1.13-5.11-3.07-6.97c-1.98-1.9-4.58-2.89-7.29-2.84c-2.72,0.07-5.2,1.15-6.98,3.05c-1.81,1.93-2.75,4.54-2.64,7.35
		C1392.75,331.33,1397.09,335.55,1402.43,335.55z"/>
	<path d="M1531.29,392.57c-2.81-0.19-5.46,0.67-7.45,2.43c-1.94,1.72-3.09,4.16-3.23,6.87c-0.29,5.59,3.94,10.38,9.43,10.67
		c0.16,0.01,0.32,0.01,0.48,0.01c2.4,0,4.81-0.96,6.69-2.66c2.04-1.85,3.27-4.43,3.38-7.06
		C1540.81,397.54,1536.64,392.94,1531.29,392.57z"/>
	<path d="M1556.03,335.56c0.04,0,0.08,0,0.12,0c2.6,0,5.05-1.01,6.91-2.86c1.94-1.92,3-4.51,2.99-7.27
		c-0.03-5.47-4.13-9.72-9.55-9.9c-2.72-0.09-5.32,0.9-7.31,2.77c-1.95,1.84-3.06,4.31-3.13,6.95c-0.07,2.58,0.98,5.19,2.87,7.15
		C1550.82,334.37,1553.41,335.52,1556.03,335.56z"/>
	<path d="M1632.98,412.56c2.57,0,5.01-1.02,6.89-2.87c1.94-1.91,3.05-4.54,3.05-7.22c0-2.75-1.03-5.28-2.91-7.13
		c-1.88-1.86-4.44-2.84-7.21-2.82c-5.38,0.08-9.73,4.32-9.88,9.66c-0.08,2.61,0.96,5.24,2.83,7.21c1.88,1.97,4.45,3.12,7.05,3.16
		C1632.87,412.56,1632.93,412.56,1632.98,412.56z"/>
	<path d="M1684,392.53c-2.7,0.05-5.31,1.21-7.18,3.19c-1.85,1.96-2.8,4.48-2.69,7.11c0.22,5.2,4.77,9.65,9.95,9.72
		c0.05,0,0.09,0,0.14,0c2.58,0,5.02-1.01,6.88-2.85c1.95-1.93,3.02-4.51,3.01-7.26c-0.01-2.76-1.04-5.3-2.91-7.13
		C1689.32,393.47,1686.81,392.47,1684,392.53z"/>
	<path d="M1658.31,315.53c-2.72,0.07-5.2,1.15-6.98,3.04c-1.81,1.93-2.75,4.54-2.65,7.35c0.21,5.41,4.55,9.64,9.9,9.64
		c0.01,0,0.01,0,0.02,0c2.61-0.01,5.2-1.13,7.12-3.09c1.91-1.95,2.98-4.54,2.94-7.13c-0.04-2.64-1.13-5.11-3.07-6.97
		C1663.63,316.47,1661.02,315.46,1658.31,315.53z"/>
	<path d="M1786.56,412.55c0.03,0,0.07,0,0.1,0c2.55,0,5.11-1.08,7.02-2.97c1.94-1.92,3.06-4.52,3.06-7.12c0-2.64-1.05-5.13-2.95-7
		c-1.94-1.92-4.51-2.95-7.28-2.91c-2.74,0.04-5.25,1.1-7.05,2.98c-1.82,1.9-2.78,4.49-2.7,7.28
		C1776.9,408.11,1781.3,412.49,1786.56,412.55z"/>
	<path d="M1812.12,335.56c0.06,0,0.12,0,0.18,0c2.58,0,5.01-1,6.87-2.83c1.95-1.92,3.02-4.49,3.02-7.25c0-5.47-4.09-9.75-9.5-9.95
		c-2.71-0.09-5.32,0.87-7.32,2.74c-1.96,1.83-3.08,4.29-3.17,6.93c-0.08,2.58,0.95,5.19,2.82,7.16
		C1806.91,334.34,1809.5,335.51,1812.12,335.56z"/>
	<path d="M1786.65,443.84c-0.01,0-0.02,0-0.03,0c-5.45,0.02-9.69,4.14-9.86,9.58c-0.09,2.78,0.88,5.39,2.75,7.37
		c1.81,1.92,4.27,3.01,6.93,3.08c0.08,0,0.15,0,0.22,0c2.51,0,5.03-1.04,6.94-2.88c1.97-1.9,3.12-4.49,3.16-7.09
		c0.03-2.62-0.99-5.12-2.89-7.03C1791.95,444.95,1789.32,443.84,1786.65,443.84z"/>
	<path d="M1684.21,463.87c0.04,0,0.08,0,0.12,0c5.35-0.07,9.64-4.37,9.78-9.78c0.07-2.8-0.9-5.39-2.73-7.29
		c-1.81-1.88-4.31-2.93-7.05-2.96c-2.7-0.04-5.31,1.02-7.26,2.95c-1.91,1.89-2.96,4.38-2.96,7.01c0,2.6,1.12,5.19,3.06,7.11
		C1679.09,462.8,1681.65,463.87,1684.21,463.87z"/>
	<path d="M1530.54,443.84c-0.01,0-0.02,0-0.03,0c-5.43,0-9.69,4.08-9.9,9.51c-0.11,2.78,0.85,5.4,2.69,7.39
		c1.8,1.93,4.25,3.04,6.91,3.13c0.1,0,0.2,0,0.3,0c2.48,0,4.98-1.02,6.88-2.82c1.99-1.89,3.16-4.47,3.22-7.08
		c0.05-2.62-0.96-5.13-2.84-7.06C1535.86,444.97,1533.23,443.85,1530.54,443.84z"/>
	<path d="M1428.07,463.87c0.02,0,0.03,0,0.05,0c5.35-0.03,9.68-4.29,9.85-9.71c0.09-2.8-0.86-5.4-2.69-7.32
		c-1.79-1.89-4.29-2.95-7.01-3c-2.72-0.06-5.31,0.98-7.28,2.89c-1.92,1.87-2.99,4.36-3.01,6.99c-0.02,2.59,1.07,5.19,3,7.12
		C1422.9,462.77,1425.48,463.87,1428.07,463.87z"/>
	<path d="M1657.94,438.05c0.2,0.01,0.39,0.02,0.58,0.02c5.33,0,9.81-4.12,10.12-9.42c0.15-2.55-0.81-5.17-2.62-7.19
		c-1.85-2.05-4.42-3.29-7.04-3.41c-5.33-0.23-9.9,3.92-10.28,9.28c-0.2,2.83,0.66,5.5,2.42,7.49
		C1652.83,436.75,1655.25,437.9,1657.94,438.05z"/>
	<path d="M1812.12,438.06c0.05,0,0.1,0,0.14,0c2.71,0,5.21-0.99,7.04-2.79c1.86-1.84,2.89-4.38,2.89-7.16
		c0-2.75-1.08-5.33-3.05-7.25c-1.91-1.87-4.36-2.88-7.04-2.82c-5.19,0.1-9.72,4.58-9.91,9.78c-0.09,2.62,0.88,5.14,2.74,7.09
		C1806.81,436.88,1809.43,438.03,1812.12,438.06z"/>
	<path d="M1555.87,418.03c-2.62,0.08-5.19,1.28-7.07,3.3c-1.85,2-2.85,4.61-2.74,7.18c0.12,2.68,1.29,5.15,3.29,6.95
		c1.88,1.69,4.29,2.6,6.82,2.6c0.16,0,0.32,0,0.47-0.01c5.41-0.24,9.45-4.55,9.41-10.03c-0.02-2.71-1.16-5.34-3.11-7.23
		C1561,418.94,1558.52,417.96,1555.87,418.03z"/>
	<path d="M1479.16,412.55c0.05,0,0.1,0,0.15,0c2.57,0,5.03-1.02,6.92-2.89c1.94-1.91,3.05-4.53,3.05-7.2
		c0.01-5.37-4.2-9.74-9.58-9.93c-2.76-0.11-5.36,0.86-7.31,2.7c-1.93,1.81-3.02,4.29-3.09,6.98c-0.07,2.7,0.94,5.27,2.84,7.25
		C1474.02,411.41,1476.51,412.51,1479.16,412.55z"/>
	<path d="M1453.67,366.76c-5.34,0-9.7,4.17-9.95,9.53c-0.13,2.76,0.81,5.36,2.63,7.34c1.8,1.95,4.27,3.07,6.96,3.16
		c0.12,0,0.23,0.01,0.35,0.01c2.56,0,5-0.97,6.9-2.77c1.97-1.86,3.09-4.35,3.15-7.02c0.06-2.61-0.99-5.22-2.87-7.16
		c-1.89-1.95-4.48-3.08-7.1-3.1C1453.72,366.76,1453.7,366.76,1453.67,366.76z"/>
	<path d="M1504.48,386.8c0.14,0.01,0.28,0.01,0.42,0.01c2.56,0,4.97-0.94,6.82-2.68c1.95-1.83,3.07-4.34,3.13-7.06
		c0.07-2.74-0.93-5.33-2.81-7.27c-1.85-1.92-4.34-3-7.03-3.03c-2.6-0.02-5.23,1.04-7.16,2.95c-1.92,1.9-3.03,4.49-3.02,7.11
		C1494.86,382.11,1499.18,386.58,1504.48,386.8z"/>
	<path d="M1403.04,418.06c-5.3-0.35-9.99,3.71-10.47,9.07c-0.25,2.84,0.57,5.53,2.3,7.56c1.67,1.96,4.06,3.15,6.74,3.35
		c0.27,0.02,0.53,0.03,0.79,0.03c5.3,0,9.66-3.91,10.1-9.22c0.21-2.53-0.69-5.15-2.45-7.2
		C1408.24,419.55,1405.69,418.24,1403.04,418.06z"/>
	<polygon points="1735.01,392.53 1735.01,392.53 1735.01,392.53 	"/>
	<path d="M1725.44,402.47c0.01,2.67,1.12,5.29,3.06,7.2c1.89,1.86,4.34,2.88,6.91,2.88c0.05,0,0.1,0,0.15,0
		c2.65-0.04,5.14-1.14,7.02-3.1c1.9-1.98,2.9-4.55,2.83-7.25c-0.07-2.69-1.17-5.17-3.09-6.98c-1.96-1.84-4.54-2.79-7.31-2.69
		C1729.63,392.73,1725.43,397.1,1725.44,402.47z"/>
	<path d="M1760.75,366.77c-2.63,0.08-5.2,1.27-7.04,3.26c-1.83,1.98-2.82,4.61-2.7,7.21c0.12,2.66,1.3,5.13,3.31,6.95
		c1.88,1.7,4.25,2.62,6.74,2.62c0.19,0,0.38,0,0.56-0.02c5.33-0.3,9.46-4.75,9.38-10.13c-0.04-2.73-1.13-5.26-3.09-7.14
		C1765.98,367.67,1763.44,366.68,1760.75,366.77z"/>
	<path d="M1709.82,386.81c0.06,0,0.12,0,0.18,0c2.65-0.04,5.24-1.19,7.1-3.15c1.88-1.97,2.86-4.52,2.77-7.18
		c-0.18-5.29-4.63-9.65-9.92-9.71c-2.69-0.04-5.2,0.99-7.11,2.87c-1.93,1.91-2.98,4.46-2.98,7.19c0.01,2.73,1.06,5.27,2.98,7.15
		C1704.69,385.81,1707.17,386.81,1709.82,386.81z"/>
	<path d="M1786.42,309.74c0.07,0,0.15,0,0.22,0c2.66,0,5.17-1.01,7.08-2.86c1.92-1.86,2.99-4.33,3.02-6.97
		c0.03-2.59-1.06-5.19-2.99-7.14c-1.92-1.94-4.5-3.05-7.09-3.05c-0.01,0-0.01,0-0.02,0c-5.35,0.01-9.7,4.27-9.89,9.68
		c-0.1,2.81,0.85,5.41,2.66,7.32C1781.19,308.61,1783.68,309.68,1786.42,309.74z"/>
	<path d="M1581.55,495.09c-5.35,0.11-9.64,4.41-9.76,9.8c-0.06,2.74,0.94,5.31,2.81,7.24c1.85,1.91,4.36,2.98,7.06,3
		c0.03,0,0.06,0,0.09,0c2.65,0,5.17-1.05,7.09-2.97c1.93-1.92,2.98-4.44,2.97-7.1c-0.01-2.61-1.13-5.2-3.07-7.09
		C1586.78,496.09,1584.17,495.03,1581.55,495.09z"/>
	<path d="M1633,495.08c-0.01,0-0.02,0-0.03,0c-2.61,0-5.2,1.1-7.1,3.02c-1.9,1.92-2.98,4.52-2.94,7.13
		c0.07,5.28,4.43,9.72,9.73,9.88c0.11,0,0.22,0,0.32,0c2.59,0,5.03-0.97,6.89-2.74c1.94-1.85,3.03-4.37,3.07-7.09
		c0.04-2.74-0.98-5.31-2.88-7.24C1638.18,496.15,1635.68,495.09,1633,495.08z"/>
	<path d="M1684.22,309.74c0.08,0,0.17,0,0.25,0c2.74-0.06,5.22-1.14,7-3.03c1.81-1.92,2.74-4.53,2.64-7.34
		c-0.2-5.33-4.64-9.65-9.9-9.65c0,0-0.01,0-0.01,0c-2.6,0-5.19,1.12-7.11,3.08c-1.92,1.95-3,4.55-2.96,7.14
		c0.04,2.64,1.12,5.12,3.04,6.97C1679.07,308.74,1681.57,309.74,1684.22,309.74z"/>
	<path d="M1530.29,309.74c0.07,0,0.13,0,0.2,0c2.67,0,5.18-1.02,7.09-2.88c1.92-1.86,2.98-4.34,3.01-6.98c0.02-2.59-1.07-5.2-3-7.13
		c-1.93-1.94-4.53-3.05-7.12-3.03c-5.35,0.02-9.69,4.28-9.87,9.7c-0.09,2.81,0.85,5.4,2.67,7.32
		C1525.06,308.62,1527.56,309.69,1530.29,309.74z"/>
	<path d="M1428.07,309.74c0.03,0,0.07,0,0.1,0c2.75-0.03,5.26-1.07,7.07-2.94c1.83-1.89,2.8-4.47,2.74-7.27
		c-0.06-2.7-1.24-5.32-3.24-7.17c-1.97-1.83-4.5-2.77-7.12-2.64c-5.2,0.26-9.62,4.86-9.64,10.04c-0.01,2.63,1.03,5.13,2.92,7.01
		C1422.82,308.69,1425.36,309.74,1428.07,309.74z"/>
	<path d="M1683.81,361.09c0.14,0,0.27,0.01,0.41,0.01c2.6,0,5.01-0.94,6.84-2.66c1.92-1.81,3-4.33,3.06-7.08
		c0.05-2.76-0.96-5.35-2.86-7.29c-1.85-1.9-4.34-2.96-6.99-2.98c-0.02,0-0.04,0-0.06,0c-2.59,0-5.17,1.09-7.08,3
		c-1.92,1.92-3.01,4.51-3,7.1C1674.16,356.54,1678.41,360.89,1683.81,361.09z"/>
	<path d="M1786.42,361.08c0.07,0,0.15,0,0.22,0c2.66,0,5.16-1.01,7.07-2.85c1.92-1.86,2.99-4.34,3.02-6.99
		c0.03-2.59-1.05-5.18-2.96-7.11c-1.92-1.94-4.51-3.05-7.12-3.05c0,0-0.01,0-0.01,0c-5.36,0.01-9.71,4.25-9.9,9.65
		c-0.1,2.79,0.85,5.39,2.68,7.32C1781.22,359.95,1783.7,361.03,1786.42,361.08z"/>
	<path d="M1530.51,361.09c0.02,0,0.04,0,0.07,0c2.74-0.02,5.3-1.11,7.22-3.08c1.87-1.93,2.87-4.44,2.81-7.07
		c-0.06-2.62-1.23-5.2-3.21-7.06c-1.97-1.86-4.58-2.88-7.19-2.78c-2.65,0.09-5.11,1.21-6.91,3.15c-1.84,1.99-2.8,4.6-2.69,7.36
		C1520.82,357.02,1525.07,361.09,1530.51,361.09z"/>
	<path d="M1402.37,469.41c-5.36,0.04-9.68,4.3-9.84,9.7c-0.08,2.79,0.88,5.38,2.71,7.3c1.81,1.89,4.3,2.96,7.02,3
		c0.05,0,0.11,0,0.16,0c2.68,0,5.2-1.03,7.11-2.9c1.91-1.87,2.97-4.36,2.98-7.01c0.01-2.6-1.08-5.19-3.01-7.1
		C1407.59,470.48,1405,469.42,1402.37,469.41z"/>
	<path d="M1427.7,361.09c0.12,0,0.25,0.01,0.37,0.01c2.61,0,5.04-0.94,6.86-2.68c1.91-1.82,2.99-4.34,3.04-7.1s-0.98-5.34-2.88-7.28
		c-1.86-1.9-4.35-2.94-7-2.95c-0.01,0-0.02,0-0.03,0c-2.6,0-5.19,1.11-7.11,3.04c-1.91,1.93-2.99,4.52-2.97,7.11
		C1418.04,356.57,1422.31,360.91,1427.7,361.09z"/>
	<path d="M1556.16,469.41c-0.01,0-0.02,0-0.03,0c-2.6,0-5.2,1.1-7.11,3.03c-1.91,1.93-2.99,4.52-2.97,7.11
		c0.05,5.34,4.32,9.68,9.72,9.86c0.12,0,0.25,0.01,0.37,0.01c2.61,0,5.04-0.94,6.86-2.68c1.91-1.82,2.99-4.34,3.04-7.1
		c0.04-2.76-0.98-5.34-2.88-7.28C1561.3,470.46,1558.81,469.41,1556.16,469.41z"/>
	<path d="M1658.59,469.41C1658.58,469.41,1658.58,469.41,1658.59,469.41c-5.37,0-9.72,4.24-9.91,9.64c-0.1,2.79,0.85,5.39,2.67,7.32
		c1.79,1.9,4.28,2.98,7,3.04c0.08,0,0.15,0,0.23,0c2.65,0,5.15-1.01,7.06-2.85c1.92-1.86,3-4.34,3.03-6.99
		c0.03-2.59-1.04-5.18-2.95-7.11C1663.8,470.52,1661.2,469.41,1658.59,469.41z"/>
	<path d="M1812.01,489.42c0.09,0,0.18,0,0.27,0c2.64,0,5.09-0.97,6.92-2.74c1.9-1.84,2.96-4.37,2.98-7.14
		c0.02-2.75-1.03-5.33-2.95-7.25c-1.88-1.88-4.35-2.91-7.03-2.89c-2.62,0.02-5.21,1.16-7.12,3.12c-1.89,1.94-2.94,4.54-2.89,7.13
		C1802.31,484.99,1806.62,489.28,1812.01,489.42z"/>
	<path d="M1742.41,343.98c-1.89-1.87-4.36-2.89-6.97-2.89c-0.04,0-0.08,0-0.13,0c-2.67,0.03-5.17,1.13-7.05,3.08
		c-1.89,1.96-2.89,4.53-2.82,7.23c0.14,5.35,4.45,9.61,9.81,9.7c0.06,0,0.12,0,0.18,0c2.66,0,5.16-1.01,7.03-2.86
		c1.9-1.87,2.96-4.39,2.96-7.08C1745.42,348.45,1744.35,345.9,1742.41,343.98z"/>
	<path d="M1479.35,443.84c-0.02,0-0.04,0-0.06,0c-5.43,0-9.72,4.06-9.98,9.47c-0.13,2.7,0.81,5.29,2.66,7.31
		c1.83,2,4.3,3.15,6.96,3.26c0.13,0,0.25,0.01,0.38,0.01c2.48,0,4.87-0.96,6.75-2.73c1.99-1.87,3.16-4.47,3.22-7.13
		c0.06-2.7-0.93-5.24-2.8-7.16C1484.61,444.93,1482.07,443.86,1479.35,443.84z"/>
	<path d="M1735.42,463.88C1735.43,463.88,1735.43,463.88,1735.42,463.88c2.65,0,5.15-1.06,7.06-2.98c1.93-1.95,2.97-4.52,2.94-7.22
		c-0.03-2.7-1.1-5.2-3.02-7.04c-1.93-1.86-4.53-2.85-7.26-2.79c-5.38,0.13-9.64,4.44-9.71,9.81c-0.03,2.71,1.01,5.28,2.94,7.23
		C1730.27,462.81,1732.78,463.87,1735.42,463.88z"/>
	<path d="M1607.49,469.41L1607.49,469.41c-0.05,0-0.1,0-0.15,0c-2.6,0-5.07,1.02-6.96,2.88c-1.95,1.92-3.02,4.47-3.02,7.17
		c0,5.37,4.2,9.74,9.57,9.95c0.14,0.01,0.28,0.01,0.41,0.01c2.58,0,5.01-0.95,6.87-2.69c1.94-1.82,3.05-4.31,3.12-7
		c0.07-2.7-0.93-5.27-2.81-7.24C1612.66,470.54,1610.16,469.45,1607.49,469.41z"/>
	<path d="M1607.38,315.52L1607.38,315.52c-0.01,0-0.01,0-0.02,0c-2.73,0-5.27,1.06-7.16,2.97c-1.88,1.9-2.89,4.43-2.85,7.13
		c0.08,5.29,4.43,9.75,9.69,9.93c0.11,0,0.22,0.01,0.34,0.01c2.5,0,4.91-0.97,6.79-2.76c1.98-1.87,3.14-4.48,3.19-7.14
		c0.05-2.69-0.95-5.23-2.83-7.14C1612.65,316.59,1610.11,315.53,1607.38,315.52z"/>
	<path d="M1478.84,361.09c0.15,0.01,0.3,0.01,0.44,0.01c2.57,0,4.99-0.94,6.85-2.67c1.95-1.81,3.07-4.3,3.15-6.99
		c0.08-2.7-0.91-5.27-2.79-7.24c-1.87-1.96-4.36-3.06-7.03-3.11c-2.64-0.05-5.18,0.97-7.11,2.86c-1.96,1.91-3.04,4.46-3.04,7.17
		C1469.28,356.48,1473.47,360.87,1478.84,361.09z"/>
</g>
<g>
	<path class="st0" d="M1083.25,1500H828.75c-70.99,0-128.75,57.75-128.75,128.75v254.51c0,70.99,57.75,128.75,128.75,128.75h254.51
		c70.99,0,128.75-57.75,128.75-128.75v-254.51C1212,1557.75,1154.24,1500,1083.25,1500z M1188.66,1628.75v254.51
		c-0.06,58.06-47.34,105.35-105.4,105.4H828.75c-58.07-0.06-105.35-47.34-105.4-105.4v-254.51c0.05-58.06,47.34-105.35,105.4-105.4
		h254.51C1141.32,1523.4,1188.6,1570.68,1188.66,1628.75z"/>
	<path class="st0" d="M956,1632.34c-68.18,0-123.66,55.47-123.66,123.66s55.47,123.66,123.66,123.66s123.66-55.47,123.66-123.66
		S1024.18,1632.34,956,1632.34z M1056.31,1756c0,55.31-45,100.31-100.31,100.31s-100.31-45-100.31-100.31s45-100.31,100.31-100.31
		S1056.31,1700.69,1056.31,1756z"/>
	<path class="st0" d="M1098.53,1561.08c-23.28,0-42.21,18.94-42.21,42.21s18.94,42.21,42.21,42.21s42.21-18.94,42.21-42.21
		S1121.8,1561.08,1098.53,1561.08z M1098.53,1622.16c-10.4,0-18.87-8.46-18.87-18.87c0-10.4,8.46-18.87,18.87-18.87
		s18.87,8.46,18.87,18.87C1117.4,1613.7,1108.93,1622.16,1098.53,1622.16z"/>
</g>
<g>
	<path class="st0" d="M329.21,1689.67c0-10.07,0-14.24,14.18-14.24h25.55v-51.1h-38.81c-21.66,0-37.09,5.35-47.17,16.34
		c-9.21,10.05-13.69,24.63-13.69,44.6v23.08H242.8v51.1h26.47v128.22h59.89v-128.23h34.99l5.42-51.09h-40.41L329.21,1689.67z"/>
	<path class="st0" d="M487.02,1574.98C438.67,1526.63,374.38,1500,306,1500c-68.38,0-132.67,26.63-181.02,74.98
		C76.63,1623.33,50,1687.62,50,1756s26.63,132.67,74.98,181.02C173.33,1985.37,237.62,2012,306,2012
		c68.38,0,132.67-26.63,181.02-74.98C535.37,1888.67,562,1824.38,562,1756S535.37,1623.33,487.02,1574.98z M539.31,1756
		c0,128.65-104.66,233.31-233.31,233.31S72.69,1884.65,72.69,1756S177.35,1522.69,306,1522.69S539.31,1627.35,539.31,1756z"/>
</g>
<path d="M364.61,379.66c0.39,0.56,0.77,1.14,1.15,1.74c0.59,0.92,1.14,1.78,1.66,2.3c54.52,54.6,109.5,109.59,162.66,162.77
	l9.83,9.85c1.02,1.04,1.97,2,2.93,2.82c4.4,3.77,9.95,3.82,14.47,0.14h0c2.9-2.36,4.51-5.19,4.67-8.19
	c0.18-3.44-1.58-7.19-4.94-10.56c-54.99-55.02-114.02-114.07-173.1-173.04c-0.38-0.38-1.4-0.9-2.22-1.32
	c-0.73-0.37-1.38-0.71-2.01-1.09l-5.79-3.47l4.27-5.23c32.51-39.78,47.71-89.05,42.81-138.73c-4.78-48.39-27.75-92.22-64.69-123.43
	c-35.41-29.92-80.3-45.6-126.41-44.13c-46.11,1.46-89.75,19.95-122.86,52.05c-69.2,67.09-76.33,174.44-16.59,249.71
	c30.9,38.93,77.25,64.19,127.16,69.3c50.24,5.14,99.41-9.99,138.48-42.61l4.85-4.05L364.61,379.66z M351.2,351.37
	c-30.72,30.65-71.61,47.53-115.16,47.53c-43.7-0.02-84.6-16.93-115.24-47.63C90.07,320.5,73.18,279.4,73.25,235.57
	c0.06-43.51,17.05-84.34,47.83-114.97c30.72-30.57,71.6-47.41,115.12-47.41h0.22c43.51,0.06,84.36,17.04,115.02,47.82
	c30.66,30.78,47.53,71.72,47.49,115.28C398.88,279.82,381.94,320.69,351.2,351.37z"/>
<path d="M2504.91,228.72c-7.5-0.68-15.15-1.2-22.55-1.71l-2.89-0.2c-10-0.68-20-1.35-30.01-2.01c-7.07-0.47-14.14-0.94-21.21-1.41
	c-18.25-1.23-36.5-2.46-54.75-3.71c-4.26-0.29-8.53-0.59-12.79-0.88l-0.97-0.07c-7.85-0.55-15.71-1.09-23.57-1.61
	c-2.72-0.18-4.33-1.37-5.36-3.98c-6.82-17.15-13.83-34.56-20.61-51.39l-13.69-34.01c-7.42-18.46-14.85-36.92-22.29-55.37
	c-0.59-1.45-1.15-2.91-1.72-4.38c-1.65-4.26-3.2-8.28-5.26-12.14c-1.93-3.61-5.49-5.8-9.52-5.85c-4.24-0.06-7.98,2.16-10.1,5.9
	c-0.72,1.27-1.27,2.66-1.86,4.16l-0.38,0.96c-10.02,24.86-20.02,49.72-30.02,74.59l-6.7,16.63c-7.86,19.51-15.98,39.68-23.88,59.63
	c-1.46,3.68-3.58,5.21-7.58,5.45c-21.2,1.3-42.62,2.74-63.34,4.13l-7.81,0.52c-28.92,1.94-52.24,3.52-73.41,4.98
	c-7.41,0.51-15.29,1.07-23.14,1.84c-4.98,0.48-9.33,5.34-9.5,10.61c-0.13,3.84,1.49,7.02,5.09,10.03
	c12.54,10.47,25.09,20.94,37.63,31.4l12.64,10.54c25.67,21.4,51.33,42.81,77.02,64.18c2.15,1.79,4.15,3.84,3.07,7.52
	c-0.89,3.04-1.67,6.19-2.43,9.3l-0.1,0.39c-0.28,1.15-0.57,2.3-0.86,3.44l-2.53,9.98c-1.7,6.69-3.4,13.39-5.08,20.08
	c-1.38,5.47-2.75,10.94-4.11,16.41l-0.46,1.85c-0.99,3.94-1.97,7.88-2.96,11.82c-1.81,7.19-3.62,14.37-5.43,21.55l-9.8,38.83
	c-0.74,2.91-1.48,5.82-2.23,8.72l-0.04,0.16c-1.72,6.69-3.5,13.6-5.08,20.43c-1.41,6.08,1.86,11.49,8.12,13.47
	c3.92,1.23,7.11-0.04,11.3-2.66l6.79-4.25c43.85-27.48,89.19-55.89,133.72-83.85c0.83-0.52,1.95-1.12,3.26-1.12
	c1,0,2.02,0.33,3.12,1.02c23.59,14.86,47.62,29.91,70.85,44.47l23.85,14.94c15.69,9.83,31.39,19.67,47.1,29.47
	c2.67,1.66,5.12,2.5,7.45,2.5c2.29,0,4.45-0.8,6.57-2.41c2.77-2.09,5.67-6.11,3.77-13.34c-0.49-1.86-0.94-3.73-1.39-5.59l-0.04-0.18
	c-0.29-1.18-0.57-2.36-0.87-3.54c-1.36-5.4-2.72-10.79-4.08-16.18l-11.13-44.21c-1.29-5.13-2.59-10.25-3.88-15.38l-11.28-44.77
	c-0.58-2.31-1.16-4.63-1.74-6.94l-0.35-1.42c-1.78-7.12-3.61-14.48-5.54-21.67c-0.88-3.28-0.79-6.03,2.55-8.8
	c30.98-25.71,62.43-51.92,92.83-77.27l23.52-19.6c3.73-3.1,7.58-6.31,11.36-9.52c3.3-2.8,4.83-5.73,4.82-9.21
	C2515.02,234.1,2510.69,229.24,2504.91,228.72z M2469.81,253.01c-0.67,0.64-1.25,1.2-1.88,1.72l-24.15,20.16
	c-27.3,22.8-55.53,46.37-83.38,69.45c-5.38,4.46-6.91,9.26-5.11,16.07c3.05,11.6,6.01,23.39,8.86,34.8l0.21,0.85
	c1.35,5.4,2.7,10.79,4.07,16.18c1.61,6.36,3.23,12.72,4.86,19.08l0.69,2.69c2.08,8.14,4.15,16.28,6.21,24.42
	c2.69,10.65,5.35,21.31,8.01,31.97l1.97,7.9c0.1,0.39,0.07,0.73,0.04,1.06c-0.01,0.14-0.03,0.31-0.04,0.55l-0.12,2.3l-2.08-0.99
	c-0.25-0.12-0.49-0.22-0.71-0.32l-0.61,1.37l0.51-1.41c-0.56-0.25-1.09-0.48-1.61-0.81c-25.86-16.2-51.71-32.41-77.57-48.62
	l-40.93-25.66c-1.21-0.76-2.49-1.52-3.8-2.27c-4.15-2.37-8.33-2.06-13.16,0.98c-15.98,10.04-31.98,20.05-47.97,30.06l-43.64,27.32
	c-9.54,5.98-19.08,11.95-28.63,17.93c-0.52,0.32-1.05,0.6-1.78,0.98c-0.38,0.2-0.82,0.43-1.33,0.71l-3.06,1.65l2.36-9.48
	c1.02-4.1,1.98-7.95,2.95-11.79c1.44-5.72,2.88-11.44,4.33-17.16l18.49-73.31c0.76-3.01,1.5-6.02,2.24-9.06
	c1.72-7,3.49-14.23,5.5-21.28c2.04-7.17,0.56-12.18-4.96-16.75c-27.42-22.71-55.07-45.79-81.81-68.11l-3.99-3.33
	c-7.31-6.1-14.62-12.21-21.94-18.31c-0.55-0.46-1.08-0.94-1.76-1.56c-0.31-0.28-0.65-0.59-1.03-0.93l-2.32-2.07l3.05-0.58
	c0.4-0.08,0.73-0.15,1.03-0.21c0.58-0.12,1.04-0.22,1.54-0.26c10.97-0.74,21.94-1.48,32.92-2.22l2.89-0.19
	c18.51-1.25,37.02-2.49,55.53-3.76c8.5-0.58,17-1.19,25.5-1.8c8.9-0.64,17.81-1.28,26.71-1.88c5.03-0.34,8.54-2.89,10.45-7.56
	c6.17-15.13,12.36-30.54,18.35-45.45l32.88-81.73c0.62-1.53,1.24-3.06,1.93-4.73l2.42-5.92l1.61,2.39c0.22,0.32,0.4,0.58,0.59,0.84
	c0.36,0.49,0.64,0.88,0.85,1.4c7.08,17.53,14.15,35.06,21.21,52.6l26.82,66.65c0.52,1.29,1.04,2.59,1.56,3.89
	c1.29,3.25,2.63,6.6,4.01,9.86c2.07,4.89,5.53,7.43,10.59,7.77c21.99,1.46,45.48,3.05,73.93,5.01c19.1,1.31,38.19,2.65,57.29,3.98
	l12.59,0.88c0.39,0.03,0.74,0.09,1.23,0.19c0.26,0.05,0.56,0.11,0.95,0.17l3.06,0.52l-2.27,2.12c-0.36,0.34-0.69,0.65-0.99,0.94
	L2469.81,253.01z M2470.86,254.08L2470.86,254.08L2470.86,254.08L2470.86,254.08z"/>
<g>
	<g>
		<path d="M961.2,1152.9c1.12,0,2.19-0.05,3.23-0.16c11.65-1.22,20.78-6.71,26.41-15.86c14.09-22.9,34.1-38.85,59.47-47.41
			c0.33-0.11,0.63-0.26,0.9-0.4c0.11-0.06,0.23-0.11,0.34-0.17c14.65-6.72,22.46-19.4,21.98-35.68c-0.1-3.22-0.24-6.5-0.38-9.67
			c-0.37-8.42-0.75-17.13-0.25-25.62c0.66-11.24,5.82-21.29,10.8-31.01c1.72-3.35,3.49-6.81,5.07-10.27
			c7.55-16.65,5.49-30.5-6.48-43.59c-1.3-1.42-2.59-2.84-3.88-4.27c-3.61-3.98-7.35-8.1-11.15-12.05
			c-8.09-8.41-13.62-18.59-16.43-30.28c-1.13-4.68-2.36-9.42-3.54-14c-0.64-2.48-1.29-4.96-1.92-7.44
			c-4.26-16.77-16.84-27.42-33.64-28.49c-28.45-1.81-49.44-9.67-66.07-24.73c-1.18-1.07-2.51-1.95-3.8-2.81
			c-0.48-0.32-0.96-0.64-1.43-0.97c-14.04-9.76-28.51-10.03-43.03-0.82c-2.23,1.41-4.45,2.93-6.6,4.39
			c-4.71,3.21-9.59,6.52-14.73,8.95c-8.39,3.96-17.27,7.06-26.39,9.21c-4.93,1.16-10.23,1.33-15.37,1.49
			c-2.13,0.07-4.34,0.13-6.5,0.27c-22.28,1.43-33.45,10.33-38.54,30.7c-6.43,25.73-18.51,45.43-36.92,60.2
			c-0.97,0.78-1.83,1.68-2.66,2.55c-0.34,0.36-0.68,0.72-1.03,1.07c-11.16,11.17-14.06,25.98-7.97,40.64
			c0.95,2.29,1.87,4.58,2.79,6.88c1.88,4.67,3.82,9.5,5.96,14.16c5.1,11.06,6.77,23.22,5.1,37.16c-0.64,5.3-1.12,10.6-1.63,16.22
			c-0.24,2.61-0.48,5.28-0.75,8.05l-0.01,0.07l0,0.07c0.63,15.01,7.51,26.01,20.46,32.69c2.59,1.33,4.98,2.56,7.21,3.7
			c28.99,14.86,28.99,14.86,46.08,39.79c1.75,2.55,3.67,5.35,5.82,8.46c0.06,0.09,0.12,0.18,0.17,0.28c0.18,0.3,0.4,0.68,0.77,0.96
			c1.67,1.3,3.33,2.7,4.93,4.06c3.75,3.16,7.63,6.43,11.96,8.82c8.46,4.67,17.29,2.63,25.83,0.66c1.08-0.25,2.16-0.5,3.23-0.74
			c2.57-0.56,5.18-1.2,7.7-1.82c10.87-2.67,22.12-5.43,33.58-2.69c4.97,1.19,10,2.59,14.86,3.93c5.12,1.42,10.41,2.89,15.67,4.13
			C954.33,1152.44,957.94,1152.9,961.2,1152.9z M772.96,1047.56l0.77,0.04l0.13-0.99h0l-0.05,0.99l1.05,0.05v-1.05
			c0-4.27,0.16-8.66,0.32-12.9c0.36-9.73,0.74-19.79-0.82-29.42c-1.95-12.05-6.49-23.84-10.89-35.25c-0.72-1.88-1.45-3.76-2.16-5.63
			c-5.68-14.99-5.79-15.27,5.47-26.49c2.04-2.03,4.16-4.06,6.21-6.02c9.31-8.89,18.93-18.09,24.12-30.57
			c3.96-9.5,7.22-19.45,10.38-29.08c0.67-2.04,1.34-4.07,2.01-6.11c3.39-10.21,5.9-12.16,16.77-13.02c3.2-0.25,6.48-0.43,9.66-0.61
			c13.54-0.75,27.53-1.52,40.22-8.03c8.56-4.39,16.87-9.57,24.92-14.58c2.58-1.61,5.16-3.21,7.75-4.79
			c8.65-5.29,11.21-5.22,19.61,0.52c3.26,2.23,6.52,4.64,9.68,6.97c10.64,7.86,21.64,15.99,35.19,19.12
			c10.13,2.34,20.62,3.81,30.77,5.24c2.43,0.34,4.87,0.68,7.3,1.04c8.9,1.29,11.37,3.47,13.91,12.27c0.92,3.17,1.8,6.36,2.69,9.54
			c2.63,9.45,5.35,19.23,8.82,28.58c4.58,12.33,13.59,21.73,22.31,30.81c1.89,1.97,3.84,4,5.71,6.03
			c10.68,11.58,10.83,12.58,4.04,26.69c-0.85,1.77-1.72,3.54-2.58,5.3c-6.69,13.66-13.61,27.78-13.99,43.81
			c-0.23,9.77,0.23,19.71,0.68,29.32l0.2,4.26c0.44,9.8-1.16,12.47-10.1,16.8c-2.71,1.31-5.43,2.61-8.15,3.9
			c-8.95,4.25-18.2,8.65-26.87,13.73c-11.24,6.6-18.87,16.98-26.24,27.02c-1.81,2.47-3.68,5.02-5.57,7.46
			c-9.12,11.79-10.04,12.11-24.57,8.26l-2.4-0.64c-10.25-2.72-20.85-5.53-31.48-7.22c-3.15-0.5-6.27-0.72-9.38-0.72
			c-10.47,0-20.69,2.47-30.65,4.87c-3.54,0.85-7.2,1.74-10.8,2.49c-9.69,2.02-12.59,0.9-18.29-7.1c-2.25-3.15-4.44-6.46-6.56-9.66
			c-7.35-11.1-14.95-22.59-26.68-30.23c-9.84-6.41-20.16-11.92-32.62-18.22C774.52,1060.18,771.54,1055.12,772.96,1047.56z"/>
		<path d="M961.2,1153.4c-3.29,0-6.96-0.47-10.89-1.39c-5.28-1.24-10.57-2.71-15.69-4.14c-4.85-1.35-9.87-2.74-14.84-3.93
			c-11.34-2.71-22.52,0.03-33.34,2.69c-2.52,0.62-5.12,1.26-7.72,1.82c-1.06,0.23-2.12,0.48-3.18,0.72
			c-8.69,2.01-17.61,4.07-26.23-0.69c-4.37-2.42-8.27-5.7-12.04-8.88c-1.6-1.35-3.26-2.75-4.92-4.05c-0.44-0.34-0.7-0.78-0.89-1.1
			c-0.05-0.09-0.1-0.17-0.15-0.25c-2.14-3.1-4.06-5.9-5.81-8.44c-17.04-24.84-17.04-24.84-45.91-39.64l-0.38-0.19
			c-2.12-1.09-4.39-2.25-6.83-3.51c-13.12-6.76-20.1-17.9-20.73-33.11l0-0.14c0.27-2.84,0.52-5.51,0.75-8.12
			c0.51-5.62,0.99-10.93,1.63-16.23c1.66-13.85,0.01-25.92-5.06-36.89c-2.16-4.68-4.1-9.51-5.97-14.18
			c-0.94-2.34-1.85-4.61-2.79-6.88c-6.17-14.86-3.23-29.87,8.08-41.18c0.34-0.34,0.67-0.68,0.99-1.03c0.88-0.92,1.75-1.83,2.74-2.63
			c18.32-14.7,30.34-34.31,36.75-59.93c5.15-20.63,16.45-29.64,39-31.08c2.16-0.14,4.36-0.21,6.5-0.27
			c5.13-0.16,10.41-0.32,15.29-1.47c9.08-2.15,17.93-5.23,26.29-9.18c5.11-2.41,9.97-5.71,14.66-8.91c2.15-1.46,4.37-2.97,6.61-4.4
			c14.7-9.33,29.36-9.05,43.58,0.83c0.45,0.31,0.91,0.62,1.36,0.92c1.36,0.9,2.71,1.79,3.92,2.89c16.54,14.98,37.44,22.8,65.77,24.6
			c17.03,1.08,29.77,11.87,34.09,28.86c0.62,2.43,1.25,4.86,1.88,7.29l0.04,0.15c1.19,4.58,2.42,9.32,3.55,14.01
			c2.79,11.6,8.28,21.71,16.31,30.05c3.79,3.94,7.52,8.05,11.12,12.02l0.37,0.41c1.18,1.3,2.36,2.6,3.55,3.9
			c12.12,13.26,14.2,27.28,6.57,44.14c-1.57,3.47-3.35,6.93-5.06,10.27c-4.98,9.7-10.11,19.7-10.76,30.83
			c-0.5,8.47-0.12,17.16,0.26,25.57c0.14,3.19,0.28,6.46,0.38,9.68c0.49,16.5-7.42,29.33-22.27,36.15c-0.1,0.05-0.2,0.1-0.3,0.15
			c-0.31,0.16-0.63,0.31-0.99,0.44c-25.26,8.52-45.17,24.4-59.2,47.2c-5.72,9.29-14.98,14.85-26.78,16.09
			C963.43,1153.34,962.33,1153.4,961.2,1153.4z M909.89,1141.82c3.35,0,6.72,0.33,10.12,1.15c4.99,1.19,10.01,2.59,14.88,3.94
			c5.11,1.42,10.39,2.89,15.66,4.13c5.16,1.22,9.84,1.63,13.83,1.21c11.49-1.21,20.49-6.61,26.04-15.62
			c14.15-23,34.25-39.02,59.73-47.62c0.31-0.1,0.58-0.24,0.83-0.37c0.14-0.07,0.26-0.13,0.37-0.18
			c14.46-6.64,22.16-19.14,21.69-35.21c-0.1-3.21-0.24-6.48-0.38-9.64c-0.37-8.46-0.76-17.18-0.26-25.7
			c0.67-11.34,5.85-21.44,10.86-31.2c1.72-3.36,3.49-6.81,5.06-10.26c7.45-16.44,5.42-30.12-6.39-43.05c-1.19-1.3-2.37-2.6-3.55-3.9
			l-0.34-0.37c-3.64-4.01-7.36-8.11-11.14-12.04c-8.15-8.47-13.72-18.74-16.56-30.51c-1.13-4.68-2.35-9.41-3.54-13.99l-0.04-0.15
			c-0.63-2.43-1.26-4.86-1.88-7.29c-4.21-16.55-16.61-27.06-33.19-28.11c-28.57-1.82-49.66-9.72-66.37-24.86
			c-1.16-1.05-2.47-1.92-3.74-2.76c-0.52-0.35-0.99-0.66-1.44-0.97c-13.86-9.63-28.15-9.9-42.47-0.81
			c-2.23,1.42-4.45,2.92-6.59,4.38c-4.73,3.22-9.62,6.54-14.8,8.99c-8.42,3.97-17.33,7.08-26.49,9.24
			c-4.98,1.18-10.31,1.34-15.47,1.5c-2.15,0.07-4.34,0.13-6.49,0.27c-22.03,1.41-33.06,10.2-38.09,30.33
			c-6.46,25.85-18.59,45.62-37.09,60.47c-0.94,0.76-1.79,1.64-2.6,2.5c-0.37,0.39-0.71,0.74-1.05,1.09
			c-11.01,11.02-13.87,25.63-7.86,40.09c0.94,2.27,1.86,4.55,2.77,6.82c1.9,4.72,3.83,9.54,5.98,14.2
			c5.14,11.15,6.83,23.39,5.14,37.43c-0.64,5.29-1.12,10.59-1.63,16.2c-0.24,2.61-0.48,5.28-0.75,8.05
			c0.62,14.89,7.41,25.74,20.19,32.33c2.44,1.26,4.71,2.42,6.83,3.51l0.37,0.19c29.1,14.92,29.1,14.92,46.27,39.95
			c1.75,2.56,3.67,5.36,5.82,8.45c0.07,0.1,0.13,0.2,0.19,0.3c0.17,0.29,0.36,0.6,0.65,0.83c1.68,1.31,3.34,2.71,4.95,4.07
			c3.73,3.15,7.6,6.4,11.88,8.77c8.29,4.58,17.02,2.56,25.47,0.61c1.12-0.26,2.18-0.51,3.24-0.74c2.59-0.57,5.18-1.2,7.69-1.82
			C893.93,1143.76,901.84,1141.82,909.89,1141.82z M962.89,1133.45c-2.76,0-6.24-0.84-11.38-2.2l-2.4-0.64
			c-10.25-2.72-20.83-5.53-31.43-7.21c-3.01-0.48-6.05-0.71-9.3-0.71c-10.41,0-20.64,2.47-30.53,4.85
			c-3.53,0.85-7.18,1.73-10.82,2.49c-9.85,2.06-13.01,0.83-18.8-7.29c-2.26-3.16-4.45-6.48-6.57-9.68
			c-7.32-11.06-14.89-22.5-26.54-30.09c-9.82-6.4-20.12-11.9-32.57-18.19c-8.42-4.26-11.53-9.6-10.08-17.33l0.08-0.43l0.74,0.04
			l0.07-0.53l0.99,0.09v-0.03c0-4.27,0.16-8.65,0.32-12.88c0.36-9.74,0.74-19.78-0.81-29.36c-1.94-12-6.48-23.77-10.86-35.15
			c-0.73-1.88-1.45-3.76-2.16-5.64c-5.68-14.99-5.9-15.58,5.59-27.02c2.06-2.05,4.17-4.07,6.22-6.03
			c9.27-8.86,18.85-18.02,24.01-30.4c3.95-9.48,7.21-19.43,10.37-29.04c0.67-2.04,1.34-4.08,2.01-6.11
			c3.44-10.36,6.18-12.49,17.21-13.36c3.22-0.25,6.5-0.44,9.67-0.61c13.48-0.75,27.43-1.52,40.02-7.98
			c8.54-4.38,16.85-9.56,24.88-14.56c2.58-1.61,5.16-3.21,7.75-4.8c8.79-5.37,11.61-5.3,20.15,0.54c3.26,2.23,6.51,4.63,9.66,6.96
			c10.63,7.85,21.58,15.95,35.04,19.06c10.12,2.34,20.59,3.81,30.72,5.23l0.43,0.06c2.29,0.32,4.58,0.64,6.87,0.98
			c9.06,1.32,11.73,3.68,14.31,12.63c0.92,3.17,1.8,6.36,2.69,9.55c2.64,9.47,5.35,19.22,8.81,28.54
			c4.54,12.24,13.52,21.59,22.2,30.64c1.79,1.86,3.82,3.98,5.72,6.04c10.8,11.7,10.99,12.98,4.12,27.25
			c-0.79,1.65-1.6,3.3-2.41,4.94l-0.18,0.36c-6.67,13.61-13.56,27.68-13.94,43.61c-0.23,9.77,0.23,19.69,0.68,29.28l0.2,4.26
			c0.45,9.97-1.3,12.87-10.38,17.27c-2.71,1.31-5.43,2.6-8.15,3.9c-8.94,4.25-18.18,8.64-26.84,13.72
			c-11.15,6.54-18.74,16.88-26.08,26.88l-0.06,0.08c-1.79,2.44-3.65,4.97-5.53,7.4C970.6,1130.57,968.01,1133.45,962.89,1133.45z
			 M908.38,1121.7c3.25,0,6.43,0.24,9.45,0.72c10.65,1.69,21.25,4.5,31.51,7.22l2.41,0.64c14.35,3.8,15.03,3.57,24.05-8.08
			c1.87-2.41,3.72-4.94,5.51-7.38l0.46,0.21l-0.4-0.3c7.4-10.08,15.05-20.5,26.39-27.15c8.7-5.1,17.96-9.5,26.91-13.75
			c2.73-1.29,5.44-2.59,8.15-3.9c8.78-4.26,10.25-6.7,9.82-16.33l-0.2-4.26c-0.45-9.61-0.91-19.55-0.68-29.35
			c0.38-16.15,7.32-30.32,14.04-44.02l0.18-0.36c0.81-1.64,1.61-3.29,2.4-4.94c6.71-13.95,6.6-14.69-3.96-26.14
			c-1.9-2.06-3.92-4.16-5.71-6.02c-8.75-9.12-17.8-18.55-22.42-30.98c-3.47-9.35-6.19-19.12-8.82-28.58
			c-0.9-3.22-1.78-6.41-2.7-9.58c-2.49-8.64-4.76-10.65-13.5-11.92c-2.29-0.33-4.57-0.65-6.86-0.98l-0.43-0.06
			c-10.15-1.42-20.65-2.9-30.81-5.24c-13.66-3.15-24.7-11.31-35.38-19.2c-3.17-2.34-6.41-4.74-9.66-6.96
			c-8.25-5.64-10.57-5.7-19.06-0.51c-2.59,1.58-5.17,3.19-7.74,4.79c-8.05,5.01-16.38,10.2-24.95,14.6
			c-12.78,6.56-26.83,7.34-40.42,8.09c-3.17,0.17-6.44,0.36-9.65,0.61c-10.71,0.85-13,2.62-16.34,12.68
			c-0.68,2.03-1.34,4.07-2.01,6.11c-3.16,9.63-6.43,19.6-10.4,29.12c-5.24,12.58-14.9,21.81-24.24,30.74
			c-2.04,1.95-4.16,3.97-6.21,6.01c-11.03,10.98-11.03,10.98-5.36,25.96c0.71,1.87,1.43,3.75,2.16,5.63
			c4.4,11.43,8.95,23.25,10.91,35.35c1.57,9.68,1.19,19.77,0.83,29.52c-0.16,4.26-0.32,8.62-0.32,12.88v1.58l-1.19-0.06l0,0
			l-0.79-0.04c-1.18,7.08,1.72,11.83,9.63,15.82c12.48,6.31,22.81,11.83,32.67,18.25c11.82,7.7,19.45,19.23,26.82,30.37
			c2.12,3.2,4.3,6.5,6.55,9.65c5.6,7.86,8.26,8.89,17.78,6.9c3.62-0.76,7.26-1.64,10.79-2.49
			C887.57,1124.19,897.85,1121.7,908.38,1121.7z M774.33,1047.13l0.02,0v-0.44L774.33,1047.13z"/>
	</g>
	<g>
		<path d="M815.47,1272.59l-0.23-0.03c-1.25-5.18-2.51-10.36-3.78-15.53c-3.1-12.68-6.3-25.79-9.2-38.74
			c-1.26-5.61-3.4-9.11-6.55-10.7c-3.09-1.55-7.04-1.22-12.07,1.02c-5.64,2.51-11.28,5.02-16.91,7.53
			c-9.77,4.35-19.53,8.7-29.31,13.03c-1.26,0.56-2.58,1.05-4.26,1.67c-0.28,0.1-0.56,0.21-0.86,0.32l53.86-110.69l-18.05-8.74
			l-0.46,0.83c-0.42,0.76-0.8,1.45-1.16,2.09c-0.71,1.27-1.33,2.36-1.88,3.5c-6.44,13.2-12.87,26.41-19.3,39.62
			c-13.92,28.57-28.31,58.11-42.5,87.15c-2.19,4.48-4.12,9.66,0.65,14.49c4.65,4.7,9.71,2.99,14.5,0.83
			c16.88-7.61,34.09-15.25,50.73-22.64l9.9-4.4c1.32-0.59,2.72-1.12,4.19-1.69c0.41-0.16,0.82-0.32,1.25-0.48
			c1.49,6.05,2.97,12.04,4.44,18.01c4.48,18.16,8.71,35.31,12.94,52.83c1.11,4.61,2.84,9.6,9.28,10.43c0.56,0.07,1.09,0.1,1.6,0.1
			c5.46,0,8.22-3.94,10.37-8.28c12.59-25.39,25.44-51.19,37.86-76.13c6.53-13.12,13.07-26.23,19.6-39.35c0.56-1.12,1-2.29,1.47-3.52
			c0.23-0.6,0.46-1.21,0.72-1.86l0.35-0.86l-17.88-8.68L815.47,1272.59z"/>
		<path d="M812.3,1312.89c-0.53,0-1.09-0.04-1.66-0.11c-6.75-0.86-8.54-6.03-9.7-10.8c-4.27-17.69-8.48-34.76-12.94-52.83
			c-1.43-5.78-2.86-11.59-4.3-17.45l-0.72,0.28c-1.46,0.56-2.84,1.09-4.16,1.68l-9.9,4.4c-16.57,7.36-33.71,14.97-50.73,22.64
			c-4.95,2.23-10.19,3.99-15.06-0.94c-5.01-5.06-3.01-10.43-0.75-15.06c14.23-29.11,28.6-58.62,42.5-87.15
			c6.43-13.21,12.87-26.42,19.3-39.62c0.55-1.13,1.16-2.22,1.87-3.47c0.39-0.69,0.77-1.37,1.19-2.13l0.68-1.25l18.93,9.17
			l-53.54,110.01c1.53-0.57,2.76-1.03,3.92-1.55c9.77-4.33,19.54-8.68,29.31-13.03c5.64-2.51,11.27-5.02,16.91-7.53
			c5.18-2.3,9.27-2.63,12.5-1.01c3.29,1.66,5.52,5.27,6.81,11.04c2.88,12.89,6.07,25.95,9.16,38.58l0.09,0.38
			c1.16,4.77,2.33,9.54,3.48,14.3l49.07-98.4l18.74,9.1l-0.52,1.29c-0.26,0.64-0.49,1.25-0.71,1.85c-0.47,1.25-0.92,2.42-1.49,3.56
			c-6.35,12.75-12.7,25.51-19.05,38.26l-0.55,1.1c-12.36,24.82-25.15,50.48-37.86,76.13C821.02,1308.56,818.1,1312.89,812.3,1312.89
			z M784.4,1230.35l0.14,0.55c1.49,6.05,2.97,12.04,4.44,18.01c4.46,18.07,8.67,35.14,12.94,52.83c1.08,4.45,2.74,9.26,8.85,10.05
			c0.53,0.07,1.04,0.1,1.54,0.1c5.23,0,7.86-3.85,9.92-8c12.72-25.65,25.5-51.32,37.86-76.13l0.55-1.1
			c6.35-12.75,12.7-25.5,19.05-38.25c0.55-1.1,0.98-2.25,1.44-3.47c0.23-0.6,0.46-1.22,0.72-1.87l0.17-0.43l-17.01-8.26
			l-49.26,98.76l-0.92-0.12l-0.08-0.33c-1.23-5.1-2.48-10.21-3.72-15.31l-0.09-0.38c-3.08-12.63-6.27-25.7-9.16-38.6
			c-1.22-5.46-3.28-8.85-6.28-10.36c-2.95-1.48-6.76-1.15-11.65,1.03c-5.64,2.51-11.28,5.02-16.91,7.53
			c-9.77,4.35-19.54,8.7-29.31,13.03c-1.27,0.56-2.59,1.05-4.27,1.68l-2.05,0.76l54.19-111.36l-17.17-8.32l-0.23,0.41
			c-0.42,0.76-0.8,1.45-1.17,2.09c-0.72,1.29-1.33,2.36-1.87,3.47c-6.44,13.21-12.87,26.41-19.3,39.62
			c-13.9,28.53-28.27,58.04-42.5,87.15c-2.11,4.32-3.99,9.32,0.56,13.91c4.42,4.47,9.31,2.81,13.94,0.73
			c17.02-7.67,34.16-15.28,50.73-22.64l9.9-4.4c1.35-0.6,2.74-1.13,4.21-1.7L784.4,1230.35z"/>
	</g>
	<g>
		<path d="M1127.96,1245.16c-20.46-42.27-41.39-85.18-61.62-126.68l-0.61-1.26c-0.49-1.01-1.11-1.97-1.76-2.99
			c-0.33-0.51-0.67-1.05-1.03-1.63l-0.47-0.78l-17.83,8.68l8.43,17.33c6.39,13.14,12.65,26.01,18.92,38.88
			c6.22,12.77,12.44,25.53,18.66,38.29l7.9,16.21l-0.15,0.19c-4.83-2.16-9.67-4.31-14.5-6.45c-11.79-5.24-23.99-10.66-35.92-16.11
			c-5.56-2.54-9.56-3.03-12.6-1.56c-3.04,1.48-5.14,4.93-6.59,10.87c-3.46,14.11-8.02,32.73-12.68,51.54
			c-0.17,0.7-0.49,1.41-0.93,2.4c-0.02,0.03-0.03,0.07-0.05,0.1l-49.18-98.61l-17.33,8.74l0.12,0.72c0.07,0.42,0.11,0.77,0.14,1.07
			c0.07,0.63,0.13,1.12,0.37,1.61c12.48,25.08,24.96,50.15,37.45,75.23l22.58,45.34c2,4.01,5,6.22,8.22,6.22
			c0.87,0,1.77-0.16,2.66-0.5c3.2-1.2,7.25-4.61,8.48-8.21c2.07-6.09,3.51-12.48,4.91-18.66c0.57-2.54,1.17-5.17,1.8-7.74
			c2.73-11.12,5.47-22.24,8.24-33.49l3.18-12.92c0.58,0.23,1.14,0.46,1.69,0.67c1.76,0.7,3.28,1.3,4.79,1.98
			c7.43,3.3,14.85,6.62,22.27,9.93c12.76,5.69,25.95,11.58,38.95,17.33c4.09,1.81,8.23,1.81,11.35-0.01
			c2.46-1.43,3.98-3.86,4.28-6.84C1130.34,1251.58,1129.62,1248.59,1127.96,1245.16z"/>
		<path d="M1017.5,1313.01c-3.46,0-6.62-2.37-8.67-6.5l-22.58-45.34c-12.49-25.08-24.98-50.15-37.45-75.23
			c-0.28-0.57-0.35-1.13-0.42-1.78c-0.04-0.33-0.07-0.66-0.14-1.05l-0.18-1.09l18.1-9.13l48.93,98.1c0.24-0.55,0.41-1.01,0.52-1.45
			c4.69-18.94,9.24-37.5,12.68-51.54c1.49-6.09,3.67-9.65,6.86-11.2c3.18-1.54,7.32-1.05,13.02,1.55
			c12.02,5.49,24.17,10.89,35.92,16.11l0.33,0.15c4.41,1.96,8.81,3.92,13.22,5.88l-9.38-19.24c-5.58-11.45-11.16-22.89-16.74-34.34
			c-5.15-10.58-10.3-21.16-15.52-31.89l-12.05-24.76l18.69-9.1l0.71,1.17c0.35,0.57,0.69,1.1,1.01,1.6c0.67,1.05,1.29,2.02,1.8,3.06
			l0.92,1.89c20.13,41.3,40.96,84,61.32,126.05l0,0c1.71,3.52,2.44,6.6,2.18,9.15c-0.32,3.15-1.93,5.71-4.53,7.23
			c-3.26,1.9-7.56,1.91-11.8,0.03c-12.96-5.73-26.12-11.6-38.84-17.28l-0.23-0.1c-7.39-3.3-14.77-6.59-22.16-9.88
			c-1.48-0.66-2.97-1.25-4.7-1.94l-1.22-0.49l-4.16,16.9c-2.39,9.71-4.76,19.34-7.12,28.96c-0.63,2.59-1.23,5.2-1.8,7.73
			c-1.4,6.19-2.85,12.59-4.93,18.71c-1.27,3.75-5.46,7.28-8.77,8.52C1019.39,1312.83,1018.44,1313.01,1017.5,1313.01z
			 M949.17,1182.59l0.06,0.36c0.07,0.41,0.11,0.75,0.14,1.05c0.07,0.65,0.12,1.08,0.33,1.5c12.47,25.08,24.96,50.15,37.44,75.22
			l22.58,45.35c2.38,4.79,6.36,6.94,10.26,5.48c3.09-1.16,7-4.44,8.18-7.91c2.06-6.07,3.5-12.44,4.9-18.61
			c0.57-2.53,1.17-5.15,1.8-7.75c2.36-9.63,4.73-19.25,7.12-28.96l4.44-18.01l2.22,0.89c1.8,0.72,3.3,1.32,4.8,1.98
			c7.39,3.29,14.78,6.58,22.16,9.88l0.22,0.1c12.72,5.68,25.88,11.55,38.83,17.27c3.94,1.74,7.91,1.75,10.89,0.02
			c2.32-1.35,3.75-3.64,4.04-6.46c0.24-2.36-0.46-5.26-2.09-8.62c-20.36-42.05-41.18-84.75-61.31-126.05l-0.92-1.89
			c-0.48-0.99-1.09-1.94-1.73-2.94c-0.34-0.53-0.68-1.06-1.03-1.64l-0.23-0.39l-16.97,8.26l11.61,23.86
			c5.22,10.73,10.37,21.31,15.52,31.89c5.58,11.45,11.16,22.9,16.74,34.34l9.96,20.44l-0.58,0.74l-0.36-0.16
			c-4.72-2.11-9.45-4.21-14.17-6.31l-0.33-0.15c-11.75-5.22-23.9-10.62-35.93-16.11c-5.41-2.47-9.28-2.97-12.17-1.56
			c-2.9,1.41-4.91,4.75-6.33,10.54c-3.44,14.05-7.99,32.6-12.68,51.54c-0.18,0.74-0.51,1.47-0.96,2.48l-0.43,0.96l-0.52-0.83
			l-48.96-98.16L949.17,1182.59z"/>
	</g>
	<g>
		<path d="M915.36,1090.07c0.14,0,0.29,0,0.44,0c28.56-0.12,56.97-12.34,77.95-33.51c20.98-21.17,32.96-49.72,32.88-78.33
			c-0.09-29.01-11.93-56.73-33.36-78.04c-21.39-21.28-49.11-32.99-78.08-32.99c-0.05,0-0.1,0-0.15,0
			c-28.85,0.04-56.45,11.84-77.73,33.22c-21.1,21.21-33.15,49.85-33.04,78.59c0.1,28.65,12.27,57.14,33.39,78.16
			C858.66,1078.09,886.96,1090.07,915.36,1090.07z M824.69,978.56c0.1-25.19,9.52-48.34,26.53-65.17
			c16.91-16.73,39.9-25.84,64.88-25.71c24.73,0.15,47.56,9.56,64.26,26.5c16.8,17.03,25.95,40.17,25.76,65.14
			c-0.19,24.79-9.57,47.67-26.42,64.41c-16.76,16.65-39.45,25.81-63.95,25.81c-0.13,0-0.27,0-0.4,0
			c-24.94-0.1-47.94-9.45-64.75-26.32C833.79,1026.35,824.59,1003.39,824.69,978.56z"/>
		<path d="M915.36,1090.57c-28.52,0-56.97-12.04-78.06-33.04c-21.21-21.12-33.43-49.74-33.54-78.52
			c-0.1-28.87,11.99-57.64,33.19-78.95c21.37-21.48,49.1-33.33,78.08-33.37h0.15c29.1,0,56.96,11.77,78.44,33.14
			c21.52,21.41,33.42,49.25,33.51,78.4c0.09,28.74-11.95,57.42-33.02,78.68c-21.07,21.26-49.61,33.53-78.31,33.65L915.36,1090.57z
			 M915.03,867.69c-28.71,0.04-56.19,11.79-77.37,33.07c-21.01,21.12-33,49.63-32.9,78.24c0.1,28.51,12.22,56.88,33.24,77.81
			c20.9,20.81,49.1,32.75,77.35,32.75l0.43,0c28.43-0.12,56.71-12.28,77.6-33.36c20.89-21.08,32.82-49.5,32.73-77.97
			c-0.09-28.88-11.88-56.47-33.21-77.69c-21.29-21.18-48.89-32.85-77.73-32.85H915.03z M915.75,1070.04
			C915.75,1070.04,915.75,1070.04,915.75,1070.04l-0.41,0c-25.08-0.1-48.2-9.5-65.1-26.46s-26.16-40.05-26.06-65.01l0.5,0l-0.5,0
			c0.1-25.33,9.58-48.6,26.68-65.53c16.86-16.69,39.82-25.86,64.7-25.86c0.18,0,0.35,0,0.53,0c24.87,0.15,47.81,9.62,64.61,26.65
			c16.89,17.13,26.09,40.39,25.9,65.5c-0.19,24.92-9.62,47.92-26.56,64.76C963.21,1060.82,940.38,1070.04,915.75,1070.04z
			 M915.57,888.18c-24.62,0-47.33,9.07-64,25.57c-16.91,16.74-26.28,39.76-26.38,64.82c-0.1,24.69,9.05,47.53,25.76,64.3
			c16.72,16.77,39.59,26.07,64.4,26.17l0.4,0c24.36,0,46.94-9.11,63.6-25.66c16.75-16.65,26.08-39.4,26.27-64.06
			c0.19-24.84-8.91-47.85-25.61-64.79c-16.61-16.84-39.31-26.2-63.91-26.35C915.92,888.18,915.74,888.18,915.57,888.18z"/>
	</g>
	<g>
		<path d="M898.93,971.26c2.53-1.82,4.98-3.76,7.82-6.02c0.91-0.73,1.87-1.49,2.89-2.29v17.15c0,3.95-0.01,7.9-0.02,11.85
			c-0.03,9.61-0.05,19.55,0.08,29.32c0.08,6.01,4.12,10.39,9.83,10.64c0.16,0.01,0.32,0.01,0.47,0.01c2.66,0,5.22-0.99,7.07-2.76
			c1.93-1.83,3-4.37,3.01-7.15c0.15-23.97,0.26-52.27-0.04-80.43c-0.04-4.15-2.06-7.62-5.41-9.26c-3.49-1.72-7.68-1.16-11.2,1.49
			c-8.04,6.06-16.44,12.76-27.25,21.74c-4.55,3.79-5.25,9.97-1.62,14.39C888.22,974.39,893.86,974.9,898.93,971.26z"/>
		<path d="M920,1032.42c-0.17,0-0.33,0-0.49-0.01c-5.98-0.26-10.22-4.84-10.31-11.13c-0.13-9.8-0.11-19.73-0.08-29.33l0-0.51
			c0.01-3.78,0.02-7.56,0.02-11.33v-16.12c-0.66,0.52-1.29,1.02-1.91,1.51l-0.17,0.14c-2.86,2.27-5.3,4.21-7.84,6.03h0
			c-5.31,3.81-11.21,3.26-15.03-1.4c-3.81-4.64-3.08-11.12,1.69-15.09c10.81-8.99,19.22-15.7,27.27-21.76
			c3.67-2.77,8.05-3.34,11.72-1.54c3.52,1.73,5.64,5.36,5.69,9.7c0.3,28.13,0.18,56.45,0.04,80.44c-0.02,2.91-1.14,5.58-3.17,7.5
			C925.48,1031.37,922.78,1032.42,920,1032.42z M910.14,961.92v18.18c0,3.78-0.01,7.56-0.02,11.34l0,0.51
			c-0.03,9.6-0.05,19.52,0.08,29.31c0.08,5.73,3.92,9.91,9.35,10.15c2.68,0.12,5.32-0.85,7.18-2.61c1.83-1.74,2.84-4.15,2.86-6.79
			c0.15-23.98,0.26-52.29-0.04-80.42c-0.04-3.96-1.96-7.26-5.13-8.82c-3.32-1.64-7.31-1.1-10.68,1.44
			c-8.03,6.05-16.43,12.75-27.23,21.73c-4.34,3.6-5,9.49-1.55,13.69c3.46,4.22,8.83,4.69,13.68,1.22h0c2.51-1.8,4.95-3.74,7.77-5.98
			l0.2-0.16c0.86-0.69,1.76-1.4,2.72-2.16L910.14,961.92z"/>
	</g>
</g>
<path d="M560.55,953.42c-2.18-23.03-5.95-46.3-9.6-68.8c-0.82-5.04-1.64-10.08-2.44-15.12c-1.39-8.72-3.3-17.16-5.33-26.09
	c-0.9-3.95-1.83-8.04-2.7-12.12l-0.13-0.59l-0.56,0.23c-0.84,0.35-1.55,0.63-2.18,0.88c-1.14,0.45-2.03,0.8-2.87,1.24
	c-9.4,4.99-18.98,10-28.25,14.85c-22.06,11.54-44.87,23.47-66.88,35.97c-31.55,17.93-55.12,35.65-74.17,55.77
	c-21.57,22.78-33.19,48.77-34.54,77.25c-1.85,39.04,14.57,72.24,48.78,98.67c1.28,0.99,2.56,1.97,3.84,2.95l1.43,1.1
	c-26.34,33.82-73.37,53.56-97.83,56.6c0.09-0.15,0.19-0.3,0.28-0.44c0.54-0.87,1.06-1.69,1.62-2.45
	c17.39-23.51,31.96-48.02,43.29-72.85c2.21-4.84,2.57-8.77,1.06-11.7c-1.4-2.71-4.39-4.53-8.88-5.4
	c-18.02-3.5-37.8-6.87-60.46-10.31c-3.83-0.58-4.75-1.61-4.72-5.26c0.09-11.63,0.09-23.45,0.08-34.88c0-6.41,0-12.82,0.01-19.23
	c0-0.73,0.15-1.49,0.35-2.45c0.09-0.42,0.18-0.89,0.27-1.4l2.16,0l4.95,0c3.03,0,6.06,0.01,9.09,0.02
	c9.17,0.03,18.64,0.07,27.96-0.14c2.03-0.05,5.4-2.02,5.62-3.67c0.47-3.38,0.39-6.81,0.31-10.45c-0.03-1.41-0.06-2.86-0.06-4.35
	v-0.5l-4.62,0l-7.39,0c-3.09,0-6.19,0-9.29,0c-8.07-0.01-16.41-0.02-24.62,0.08c-2.01,0.04-3.19-0.26-3.88-0.95
	c-0.66-0.66-0.96-1.74-0.94-3.41c0.16-17.53,0.17-35.73,0.02-54.11c-0.03-3.44,1.15-4.62,4.68-4.68c5.18-0.09,9.51-0.29,13.83-0.94
	c10.82-1.63,21.45-3.35,32.7-5.18c4.16-0.68,8.36-1.36,12.62-2.04l7.15,22.57l18.35-4.4l-6.61-23.31c5.37-2.62,10.71-5.2,16.02-7.77
	c13.3-6.43,25.87-12.5,38.57-18.99c4.78-2.44,7.38-5.17,7.94-8.34c0.56-3.15-0.93-6.56-4.53-10.44
	c-54.2-58.33-119.25-79.75-193.34-63.66c-49.63,10.78-92.78,39.82-121.49,81.76c-28.59,41.77-40.38,92.6-33.21,143.13
	c6.45,45.43,29.72,87.9,65.52,119.57c35.92,31.78,81.11,49.68,127.24,50.41c1.31,0.02,2.61,0.03,3.92,0.03
	c59.84,0,109.74-21.92,148.36-65.2c4.28-4.79,7.32-5.54,13.58-3.35c36.63,12.84,70.01,9.16,99.22-10.96
	c19.72-13.58,34.07-33.98,43.87-62.38C565.84,1023.15,563.74,987.22,560.55,953.42z M259.92,1178.95v-87.72l51.77,7.72
	C297.24,1128.63,280.76,1154.1,259.92,1178.95z M315.67,900.67c-16.09,4.79-33.33,7.43-55.74,8.53v-89.38
	C283.48,843.54,301.72,870,315.67,900.67z M336.55,895.05l-43.78-70.47c33.28,7.91,61.93,24.63,87.52,51.09L336.55,895.05z
	 M416.4,1111.38c0.91-1.28,1.78-2.49,2.57-3.75c1.55-2.46,3.1-4.91,4.65-7.37c5.41-8.55,11-17.38,16.3-26.2
	c1.89-3.13,3.92-4.36,7.5-4.52c9.53-0.42,19.2-1.11,28.56-1.77c3.42-0.24,6.85-0.48,10.27-0.71c4.24-0.29,7.54-1.65,9.54-3.96
	c1.53-1.76,2.24-4.04,2.06-6.6c-0.44-6.01-4.79-9.14-12.25-8.79c-5.95,0.27-12,0.67-17.84,1.07c-3.24,0.22-6.48,0.44-9.72,0.63
	c-1.01,0.06-2.03,0.05-3.33,0.03c-0.47-0.01-0.97-0.01-1.51-0.02c0.47-0.99,0.93-1.94,1.37-2.85c1.1-2.28,2.15-4.44,3-6.63l2.07-5.3
	c9.55-24.5,19.43-49.83,28.88-74.84c1.16-3.06,1.53-7.45,0.02-9.94c-1.6-2.64-6.23-5.48-8.94-4.87c-3.31,0.74-7.2,4.16-8.48,7.46
	c-4.03,10.37-7.71,21.07-11.28,31.41c-1.49,4.31-2.97,8.63-4.48,12.93c-0.44,1.24-0.97,2.43-1.65,3.94
	c-0.26,0.57-0.53,1.19-0.83,1.86c-0.37-0.5-0.72-0.97-1.04-1.4c-0.9-1.2-1.67-2.23-2.33-3.3c-2.23-3.6-4.43-7.21-6.64-10.83
	c-2.48-4.07-4.97-8.14-7.49-12.19c-4.1-6.6-9.42-8.65-14.6-5.64c-2.32,1.35-3.78,3.15-4.34,5.35c-0.75,2.95,0.15,6.54,2.67,10.66
	c2.25,3.69,4.52,7.37,6.79,11.04c4.9,7.94,9.98,16.16,14.77,24.35c1.25,2.13,2.07,5.59,1.23,7.46
	c-12.52,27.92-26.61,52.42-43.08,74.88c-0.19,0.25-0.47,0.48-0.86,0.79c-0.17,0.13-0.35,0.28-0.56,0.45
	c-20.04-12.08-33.81-27.55-42.08-47.29c-9.29-22.14-8.73-44.97,1.7-69.79c11.91-28.35,33.83-46.95,53.69-61.4
	c37.46-27.25,78.16-48.67,113.03-66.02c0.55-0.28,1.16-0.47,2-0.73c0.33-0.1,0.7-0.22,1.1-0.35c0.73,3.77,1.53,7.54,2.3,11.2
	c1.76,8.3,3.57,16.88,4.58,25.36l0.78,6.48c3.32,27.72,6.76,56.38,8.67,84.66c2.39,35.38-3.84,65.21-19.04,91.22
	c-22.91,39.2-61.49,52.58-105.82,36.72c-0.59-0.21-1.15-0.51-1.92-0.92c-0.3-0.16-0.63-0.33-1-0.52
	C415.72,1112.33,416.07,1111.85,416.4,1111.38z M239.58,1091.08v88.1c-21.75-25.38-38.54-50.92-52.74-80.21L239.58,1091.08z
	 M183.96,900.14c13.26-29.65,31.19-55.79,54.78-79.89l0.99,0.36v88.23C221.92,908.32,204.17,905.55,183.96,900.14z M240.17,986.32
	c0,1.45-0.06,2.92-0.85,3.71c-0.52,0.52-1.37,0.78-2.55,0.77c-12.47-0.02-24.94-0.03-37.53-0.03c-6.01,0-12.04,0-18.12,0l-18.1,0
	c-0.25-19.15,3.3-36.29,6.81-50.56c0.84-3.4,1.9-6.81,2.94-10.11c0.81-2.59,1.65-5.26,2.37-7.92c0.82-3.02,2.1-3.82,5.27-3.3
	c19.07,3.18,37.79,6.1,55.63,8.69c3.24,0.47,4.18,1.51,4.16,4.64C240.1,950.25,240.13,968.58,240.17,986.32z M234.34,1073.09
	c-13.21,1.52-26.21,3.39-39.97,5.37c-5.04,0.73-10.13,1.46-15.31,2.19c-9.05-22.96-14.4-46.64-15.89-70.39h76.48
	c0.06,0.52,0.12,1.03,0.18,1.52c0.16,1.27,0.3,2.47,0.31,3.65c0.01,5.61,0,11.21-0.01,16.82c-0.02,11.4-0.05,23.18,0.14,34.77
	C240.34,1071.65,238.92,1072.56,234.34,1073.09z M118.48,874.94c25.27-25.89,54.16-42.44,88.25-50.57l-43.68,69.94L118.48,874.94z
	 M70.97,1010.2c1.31-0.17,2.34-0.31,3.36-0.31c10.28-0.02,20.55-0.02,30.83-0.02c11.27,0,22.55-0.01,33.82-0.03
	c3.53-0.01,5.55,0.19,5.79,4.28c1.32,21.69,6.32,44.52,15.29,69.81c0.29,0.82,0.49,1.69,0.62,2.27c0.01,0.03,0.02,0.07,0.02,0.1
	c-3.46,1.57-6.91,3.13-10.34,4.69c-14.26,6.47-27.73,12.58-41.59,18.59c-1.07,0.47-4.13-0.84-5.12-2.18
	c-15.65-21.25-26.08-45.19-30.99-71.13c-1.1-5.84-1.82-11.65-2.57-17.8c-0.32-2.65-0.65-5.32-1.02-8.02
	C69.78,1010.36,70.4,1010.27,70.97,1010.2z M105.96,890.28l50.01,22.09l-14.28,78H70.41C67.98,966.29,83.16,916.7,105.96,890.28z
	 M166.87,1105.03l44.05,71.9c-35.52-7.67-65.71-24.44-92.25-51.24L166.87,1105.03z"/>
<g>
	<path d="M1711.74,1250.69c-8.99-32.83-18.28-66.77-27.29-100.19c-0.82-3.05-1.68-6.08-2.54-9.12c-4.3-15.15-8.75-30.82-7.59-47.39
		c0.68-9.69,0.54-19.59,0.41-29.16c-0.08-5.98-0.17-12.17-0.06-18.24c0.07-3.47,1.1-7.27,2.76-10.16
		c23.45-40.81,47.42-82.24,70.6-122.3l17.18-29.7c4.78-8.27,4.15-11.3-3.55-17.11c-8.66-6.52-17.86-13.41-28.11-21.05
		c-4.53-3.38-7.46-4.55-10.12-4.05c-2.67,0.5-5,2.7-8.05,7.57l-15.51,24.84c-20.49,32.82-41.69,66.77-62.46,100.2
		c-1.77,2.85-3.53,3.85-6.7,3.8c-17.27-0.24-33.12-0.24-48.44,0.01c-4.03,0.06-6.2-1.15-8.37-4.64
		c-21.99-35.45-44.48-71.4-66.23-106.18l-11.78-18.84c-2.61-4.18-4.93-6.26-7.52-6.75c-2.61-0.48-5.57,0.64-9.61,3.66
		c-9.38,7.01-18.74,14.03-28.1,21.07c-8.4,6.32-8.93,9.06-3.55,18.36l5.33,9.21c27.17,46.92,55.25,95.43,82.79,143.2
		c1.22,2.12,1.96,4.81,1.98,7.2c0.15,20.8,0.16,42.3,0.02,63.89c-0.02,3.66-0.53,7.41-1.46,10.85
		c-11.7,43.11-23.66,86.93-35.23,129.3l-13.14,48.14c-1.46,5.34-1.3,8.92,0.49,11.26c1.82,2.39,5.35,3.5,11.1,3.5
		c4.42,0,8.84-0.01,13.25-0.02c10.31-0.03,20.97-0.06,31.45,0.1c0.12,0,0.23,0,0.35,0c6.06,0,9.55-2.49,11.63-8.27
		c6.89-19.12,14.06-38.5,20.99-57.24c2.48-6.69,4.95-13.39,7.42-20.09l21.55-58.4l0.53,0c0.24,0.63,0.49,1.25,0.73,1.88
		c0.6,1.53,1.2,3.06,1.77,4.6l10.25,27.78c12.26,33.22,24.94,67.57,37.28,101.4c2.16,5.92,5.73,8.4,11.95,8.32
		c10.55-0.16,21.28-0.13,31.65-0.1c4.53,0.01,9.07,0.03,13.58,0.02c5.43,0,8.79-1.1,10.59-3.46c1.81-2.37,1.98-5.94,0.53-11.25
		C1720.22,1281.67,1715.98,1266.18,1711.74,1250.69z M1555.25,1111.25l0.01-1.92c0.1-21.71,0.2-44.16-0.11-66.24
		c-0.06-4.35-1.33-9.1-3.39-12.69c-22.5-39.23-45.54-79.02-67.82-117.51l-17.56-30.33c-0.4-0.69-0.78-1.39-1.25-2.25l-0.63-1.14
		l19.62-14.76l0.99,1.51c0.86,1.32,1.68,2.58,2.48,3.85c5.51,8.82,11.03,17.64,16.54,26.46c19.08,30.5,38.81,62.04,58.07,93.14
		c3.22,5.2,7.01,7.34,13.03,7.34c0.13,0,0.25,0,0.38,0c22.63-0.33,44.87-0.2,61.72-0.04c0.07,0,0.13,0,0.2,0
		c5.24,0,8.69-1.95,11.51-6.5c20.17-32.47,40.77-65.42,60.69-97.29l14.78-23.65c0.68-1.08,1.39-2.15,2.18-3.33
		c0.31-0.46,0.63-0.95,0.97-1.46l19.52,14.64c-0.24,0.47-0.47,0.92-0.7,1.36c-0.55,1.09-1.08,2.12-1.64,3.1l-14.44,24.97
		c-22.84,39.5-46.46,80.35-69.79,120.47c-2.98,5.12-4.28,9.83-4.22,15.26c0.11,9.59,0.09,19.34,0.07,28.76
		c-0.03,12.21-0.05,24.84,0.2,37.26c0.13,6.6,1.77,13.15,3.57,19.84c10.62,39.35,21.53,79.33,32.07,117.99
		c3.82,14.01,7.64,28.02,11.46,42.03c0.2,0.75,0.36,1.51,0.55,2.48c0.07,0.37,0.15,0.77,0.24,1.2c-2.45,0-4.87,0.01-7.27,0.02
		c-7.95,0.03-15.45,0.06-23.02-0.21c-1.24-0.04-3.24-2.17-3.82-3.73c-8.22-21.98-16.45-44.38-24.42-66.03l-6.7-18.22
		c-2.42-6.57-4.84-13.15-7.27-19.72c-5.52-14.95-11.22-30.4-16.76-45.62c-1.54-4.24-3.73-8.18-9.18-8.31
		c-6.03-0.12-8.13,4.26-9.65,8.39c-6.67,18.16-13.35,36.32-20.04,54.47c-11.37,30.86-23.12,62.77-34.58,94.19
		c-1.43,3.91-3.07,5.06-7.02,4.9c-3.86-0.15-7.7-0.2-11.62-0.2c-2.67,0-5.37,0.02-8.13,0.04c-2.62,0.02-5.28,0.04-8,0.04
		c0.73-2.75,1.45-5.46,2.16-8.13c1.65-6.19,3.25-12.22,4.89-18.24c3.84-14.06,7.68-28.12,11.52-42.19
		c9.31-34.07,18.93-69.29,28.33-103.96C1554.81,1118.31,1555.23,1114.92,1555.25,1111.25z"/>
	<path d="M1851.03,1183.03c-15.63-0.41-33.54,0.93-48.34,13.86v-29.77c0.54-0.02,1.06-0.04,1.56-0.06c1.28-0.05,2.49-0.09,3.68-0.19
		c23.74-1.97,39.45-11.72,48.03-29.83c6.31-13.34,6.46-27.63,5.77-39.85c-0.26-4.65-3.66-7.81-8.33-7.73
		c-1.54,0.03-3.1,0.05-4.65,0.07c-7.1,0.09-14.44,0.17-21.33,1.8c-6.22,1.47-12.25,4.13-18.07,6.7c-2.31,1.02-4.68,2.07-7.05,3.03
		v-35.94c1.74-0.16,3.44-0.29,5.09-0.43c3.79-0.31,7.37-0.6,10.94-1.05c19.11-2.4,29.61-11.99,33.05-30.21
		c1.42-7.51,1.62-15.37,1.82-22.96c0.04-1.55,0.08-3.09,0.13-4.64c0.11-3.24-0.67-5.75-2.31-7.47c-1.73-1.81-4.43-2.75-8.03-2.79
		c-15.16-0.2-27.83,0.16-40.68,6.49c0.01-1,0.03-1.93,0.05-2.82c0.06-2.36,0.11-4.39-0.12-6.43c-0.49-4.39,0.84-6.55,5.25-8.57
		c9.52-4.36,17.46-15.08,19.77-26.69c2.11-10.63-0.61-20.67-7.67-28.26c-5.99-6.44-13.3-11.61-21.53-17.23
		c-2.45-1.67-7.37-1.3-9.8,0.12c-7.17,4.19-12.78,8.31-17.17,12.59c-9.42,9.21-13.73,21.17-11.83,32.82
		c1.94,11.93,10.08,22.18,22.34,28.13c1.19,0.58,2.44,2.16,2.53,3.2c0.25,3.16,0.21,6.34,0.16,9.41c-0.01,0.93-0.03,1.85-0.03,2.74
		c-1.93-0.47-3.84-0.97-5.7-1.46c-4.78-1.25-9.29-2.44-13.98-3.07c-6.04-0.81-12.26-0.86-18.28-0.91c-1-0.01-2-0.02-3-0.03
		c-3.28-0.07-5.97,0.87-7.73,2.64c-1.53,1.53-2.33,3.69-2.31,6.22l0.03,2.72c0.07,7.87,0.14,16.02,1.3,23.88
		c2.76,18.6,12.39,28.49,31.25,32.09c4.16,0.79,8.46,1.16,12.62,1.52c1.78,0.15,3.55,0.3,5.32,0.49v37.35
		c-15.82-12.75-33.75-13.86-50.79-13.14c-4.8,0.2-8.13,3.81-8.3,8.98c-0.16,5.18-0.13,9.9,0.1,14.42
		c1.45,28.63,17.04,47.36,43.89,52.73c3.54,0.71,7.21,1.07,10.75,1.42c1.51,0.15,3.03,0.3,4.54,0.48v34.23
		c-14.42-13.66-32.15-19.41-57.3-18.63c-7.31,0.23-10.45,3.41-10.52,10.63c-0.04,4.38-0.06,8.32,0.09,12.27
		c1.27,32.51,20.55,55.59,51.56,61.74c3.75,0.74,7.5,1.13,11.47,1.54c1.7,0.17,3.42,0.35,5.16,0.56v41.73h18.14v-42.33
		c0.54,0,1.05,0.01,1.53,0.02c1.23,0.02,2.3,0.03,3.36-0.03c29.27-1.63,47.34-17.56,52.26-46.08c1.38-7.98,1.67-16.27,1.95-24.28
		c0.06-1.64,0.11-3.27,0.18-4.9c0.15-3.58-0.59-6.18-2.24-7.95C1857.87,1184.09,1855.06,1183.13,1851.03,1183.03z M1832.39,1241.2
		c-6.7,6.79-16.59,10.08-29.41,9.79c-3.11-13.12-0.42-26.09,7.4-35.62c7.75-9.43,19.78-14.55,33.09-14.07
		C1844.14,1219.65,1840.42,1233.07,1832.39,1241.2z M1808.4,1020.2c4.83-4.95,13.08-6.85,26.71-6.13
		c0.38,13.93-1.51,21.87-6.27,26.52c-4.74,4.62-12.75,6.39-25.95,5.71C1801.89,1033.38,1803.64,1025.08,1808.4,1020.2z
		 M1812.57,1118.55c7.82-8,19.16-11.9,31.14-10.74c0.28,13.27-4.01,24.65-12.09,32.07c-7.38,6.78-17.61,9.85-28.86,8.67
		C1801.43,1137.22,1804.99,1126.3,1812.57,1118.55z M1793.21,970.03c-0.04,0-0.09,0-0.13,0c-4.96-0.05-9.51-2.88-12.49-7.77
		c-1.46-2.4-2.36-5.13-3.4-8.28c-0.49-1.5-1-3.05-1.62-4.69c0.76-1.15,1.47-2.36,2.17-3.54c1.58-2.69,3.21-5.46,5.41-7.49
		c1.01-0.93,1.92-1.78,2.74-2.54c3.75-3.5,5.63-5.26,7.32-5.32c1.68-0.06,3.44,1.58,6.98,4.84c0.92,0.84,1.95,1.79,3.12,2.85
		c7.69,6.9,8.65,15,2.87,24.09C1802.99,967.18,1798.27,970.03,1793.21,970.03z M1757.85,1040.76c-5.03-4.83-6.91-12.86-6.29-26.81
		c12.91-0.85,21.32,1.18,26.45,6.39c5.04,5.11,6.92,13.29,5.91,25.72C1771.04,1047.15,1762.75,1045.47,1757.85,1040.76z
		 M1742.94,1107.98c10.2-1.96,20.12,0.73,27.98,7.59c9.04,7.89,13.78,19.93,13.05,33.08c-12.21,0.79-23.04-2.85-30.52-10.28
		C1745.96,1130.94,1742.24,1120.16,1742.94,1107.98z M1766.65,1210.19c11.52,9.61,17.99,24.77,17.37,40.64
		c-15.1,0.49-27.73-3.81-36.52-12.48c-8.86-8.73-13.39-21.38-13.11-36.58C1745.68,1199.26,1757.12,1202.24,1766.65,1210.19z"/>
	<path d="M1370.05,1026.88c10.44,3.45,12.78,9.16,13.29,17.86c0.04,0.7,0.21,1.39,0.37,2.06c0.09,0.38,0.18,0.75,0.25,1.13
		c0.95,5.39,4.27,8.26,9.58,8.29c5.18,0.03,10.48,0.04,15.86,0.04c5.63,0,11.35-0.02,17.12-0.05c5.35-0.03,8.57-2.83,9.55-8.32
		c0.26-1.43,0.53-2.86,0.8-4.29c0.55-2.88,1.11-5.85,1.55-8.8c0.46-3.16,1.64-4.45,4.65-5.13c14.97-3.38,26.08-16.18,27-31.12
		c0.96-15.51-7.97-29.23-22.74-34.95c-0.66-0.26-1.31-0.55-1.92-0.83c-0.19-0.09-0.38-0.17-0.56-0.25
		c-2.32-21.65-15.65-35.08-34.84-35.08c-19.15,0-32.48,13.46-34.84,35.16c-0.54,0.22-1.06,0.42-1.57,0.62
		c-1.2,0.47-2.33,0.91-3.41,1.44c-13.26,6.51-20.06,17.02-20.19,31.23C1349.86,1011.09,1357.35,1022.68,1370.05,1026.88z
		 M1425.74,966.6c-1.01,4.12-0.68,7.31,0.97,9.48c1.67,2.19,4.71,3.37,9.04,3.5c4.61,0.13,8.83,2,11.9,5.26
		c3,3.18,4.57,7.37,4.44,11.79c-0.28,9.2-7.91,16.22-17.45,15.95c-8.23-0.22-10.78,1.83-12.25,10.03c-0.2,1.11-0.38,2.22-0.57,3.33
		c-0.5,3.03-1.02,6.15-1.84,9.13c-0.34,1.23-2.03,2.88-3.02,2.95c-3.95,0.27-7.91,0.23-12.09,0.19c-1.42-0.01-2.85-0.03-4.31-0.03
		c-0.3-1.56-0.59-3.09-0.88-4.62c-0.71-3.7-1.38-7.2-2.02-10.77c-1.46-8.19-4.1-10.38-12.17-10.22c-4.95,0.11-9.41-1.61-12.7-4.8
		c-3.1-3.02-4.82-7.12-4.86-11.55c-0.07-9.29,7.12-16.44,16.73-16.64c4.05-0.08,6.94-1.22,8.6-3.37c1.69-2.19,2.04-5.37,1.05-9.45
		c-1.86-7.64,0.35-14.12,6.21-18.24c5.74-4.04,13.15-4.08,18.86-0.09C1425.25,952.5,1427.56,959.13,1425.74,966.6z"/>
	<path d="M1387.51,1210.03c-2.42-2.41-4.83-3.62-7.28-3.59c-2.42,0.03-4.85,1.32-7.23,3.81c-16.89,17.76-21.36,43.53-11.4,65.66
		c9.86,21.91,28.12,34.38,52.82,36.08l0.02,0l0.02,0c18.07-0.48,31.86-5.8,43.4-16.73c2.52-2.39,3.81-4.83,3.85-7.27
		c0.04-2.41-1.16-4.85-3.56-7.26C1435.47,1257.93,1412.36,1234.81,1387.51,1210.03z M1438.36,1287.57
		c-6.81,4.36-14.66,6.35-23.9,6.08l6.49-24.02L1438.36,1287.57z M1396.39,1245.89l-22.74,3.71l6.24-20.25L1396.39,1245.89z
		 M1403.98,1262.96l-6.98,25.87c-9.33-4.89-15.49-11.73-19.33-21.46L1403.98,1262.96z"/>
	<path d="M1473.76,1107.48c-3.43-2.35-7.21-4.2-11.22-6.15c-1.79-0.88-3.64-1.78-5.53-2.76l11.03-21.29l-14.91-10.99l-0.26,0.55
		c-1.31,2.76-2.61,5.43-3.87,8.05c-3.11,6.42-6.05,12.48-8.68,18.7c-1.29,3.04-2.6,4.71-6.19,5.37
		c-23.86,4.4-41.38,25.36-41.66,49.84c-0.28,24.19,17.04,46.15,40.29,51.1c3.8,0.81,7.59,1.2,11.32,1.2
		c20.45,0,39-11.79,47.35-31.13C1501.16,1147.41,1493.72,1121.14,1473.76,1107.48z M1446.17,1182.99
		c-18.4,0.9-33.99-12.51-35.55-30.53c-1.39-16.18,10.02-32.19,24.52-34.6v15.98l17.72-1.89v-13.88c12.42,0.8,24.6,15.84,24.76,30.75
		C1477.82,1167.11,1464,1182.12,1446.17,1182.99z"/>
	<path d="M1605.91,962.5c0.03,0,0.07,0,0.1,0c28.4-0.06,51.49-23.27,51.48-51.74c-0.01-13.74-5.4-26.68-15.19-36.42
		c-9.77-9.73-22.71-15.09-36.46-15.09c-0.02,0-0.05,0-0.07,0c-13.74,0.02-26.67,5.42-36.41,15.21
		c-9.74,9.79-15.09,22.76-15.07,36.53c0.02,13.76,5.42,26.7,15.2,36.44C1579.26,957.15,1592.19,962.5,1605.91,962.5z
		 M1639.47,911.26c-0.07,8.88-3.64,17.23-10.04,23.51c-6.38,6.26-14.77,9.69-23.66,9.69c-0.13,0-0.26,0-0.38,0
		c-18.31-0.2-33.13-15.32-33.05-33.7c0.08-18.48,15.18-33.46,33.68-33.46c0.05,0,0.09,0,0.14,0c8.89,0.04,17.26,3.57,23.56,9.95
		C1636.07,893.69,1639.54,902.22,1639.47,911.26z"/>
	<rect x="1460.9" y="800.04" width="17.37" height="25.9"/>
	<rect x="1733.26" y="800" width="17.58" height="25.72"/>
	<rect x="1401.22" y="859.53" width="25.89" height="17.38"/>
	<rect x="1784.45" y="859.56" width="26.08" height="17.32"/>
	<polygon points="1441.15,829.04 1423.84,811.5 1412.58,822.57 1429.94,840.04 	"/>
	<polygon points="1798.13,823.4 1787.6,811.63 1770.39,828.89 1781.58,840.02 	"/>
</g>
<g>
	<path d="M2180.79,948.95c-5.01-46.65,29.24-72.8,60.82-73.95c31.12-1.14,69.91,25.22,64.39,74.22c7.86,2.59,15.87,4.94,23.67,7.87
		c35.55,13.32,66.04,33.86,90.1,63.55c7.07,8.72,17.18,10.57,26.54,5.24c8.41-4.79,12.42-14.81,9.58-23.95
		c-3.17-10.19-12.05-15.72-23.2-14.44c-8.47,0.97-13.46-2.06-14.26-8.64c-0.8-6.57,3.16-10.78,11.55-12.26
		c20.59-3.64,41.39,10.5,46.63,31.69c5.2,21-7.37,43.07-28.2,49.38c-2.98,0.9-6.06,1.44-8.56,2.02c3.91,12.9,8.96,25.41,11.43,38.4
		c9.63,50.79-5.82,94.5-39.72,132.31c-6.64,7.4-14.35,13.87-21.88,20.4c-2.76,2.4-4.03,4.29-2.64,8c1.66,4.44,2.63,9.14,3.86,13.74
		c4.2,15.62-2.1,29.32-17.38,34.34c-17.18,5.64-34.71,10.34-52.31,14.52c-12.5,2.97-25.09-4.96-29.76-17.29
		c-0.95-2.51-1.65-5.11-2.7-8.4c-30.26,5.34-60.45,5.35-90.75,0c-0.64,1.94-1.06,3.19-1.46,4.45c-5.39,17.02-16.7,24.41-34.3,20.5
		c-16.54-3.68-32.94-8.32-48.99-13.74c-15.74-5.31-22.79-19.03-16.98-34.78c4.87-13.2,2.54-21.21-8.84-29.94
		c-16.29-12.5-28.46-29.29-37.51-47.85c-2.93-6.01-6.77-8.75-13.01-10.08c-17.4-3.72-29.78-13.71-33.81-31.46
		c-4.12-18.11-4.18-36.61,0.16-54.69c4.03-16.79,15.69-26.81,32.31-30.44c7.24-1.58,12.24-4.47,14.91-11.68
		c1.55-4.19,3.94-8.32,6.85-11.69c5.93-6.85,7.01-14.83,7.43-23.37c0.62-12.69,1.58-25.37,2.74-38.03
		c1.46-15.95,16.78-25.9,32.84-21.33c11.55,3.29,22.9,7.28,34.49,10.39c3.39,0.91,7.56,0.69,10.91-0.41
		C2157.53,957.67,2169.11,953.19,2180.79,948.95z M2433.39,1112.21c-0.74-5.56-1.26-14.23-3.12-22.59
		c-8.89-40.11-32.43-70.4-66.47-91.76c-68.32-42.87-140.14-45.92-213.93-15.02c-5.36,2.24-10.1,2.96-15.66,1.13
		c-12.47-4.12-25.08-7.83-37.66-11.62c-6.43-1.93-8.14-0.67-8.62,6.1c-0.54,7.69-1.25,15.39-1.48,23.09
		c-0.54,17.8-1.66,35.36-14.87,49.31c-0.15,0.16-0.26,0.38-0.33,0.59c-5.19,16.51-16.21,25.29-33.57,27.6
		c-8.91,1.18-14.29,8.56-14.84,17.36c-0.82,12.84-0.83,25.8,0,38.64c0.59,9.1,6.28,15.33,15.37,17.87
		c5.67,1.59,11.54,2.64,16.98,4.82c3.08,1.23,6.7,3.69,7.94,6.53c11.99,27.39,30.76,49.01,54.9,66.23
		c4.92,3.51,6.28,7.97,4.64,13.66c-2.32,8.05-4.41,16.18-6.78,24.22c-1.25,4.24-0.07,7.54,4.01,8.74
		c15.84,4.65,31.75,9.03,47.69,13.33c4.51,1.22,7.4-0.99,8.62-5.44c1.2-4.37,2.3-8.77,3.65-13.09c2.39-7.65,6.54-9.95,14.48-8.52
		c7.58,1.37,15.16,2.84,22.79,3.76c25.22,3.04,50.24,1.73,75.07-3.68c8.21-1.79,12.47,0.91,14.82,8.95
		c1.14,3.91,2.2,7.85,3.18,11.81c1.25,5.06,4.28,7.52,9.45,6.13c15.51-4.18,30.99-8.44,46.42-12.89c4.82-1.39,5.99-5.05,4.6-9.73
		c-1.55-5.21-2.99-10.46-4.47-15.69c-4.49-15.91-4.48-15.91,8.4-25.96c1.61-1.26,3.22-2.51,4.78-3.83
		C2412.46,1194.21,2432.47,1159.57,2433.39,1112.21z M2202.25,943.21c27.7,0,54.95,0,82.34,0c3.17-14.91-4.63-31.9-19.3-40.97
		c-14.91-9.23-34.71-7.93-48.38,3.18C2204.66,915.37,2198.38,932.57,2202.25,943.21z"/>
	<path d="M2248.79,836c0.01-5.67-0.17-11.34,0.06-17c0.28-6.83,4.39-11.02,10.41-11.04c6.05-0.03,10.41,4.08,10.56,10.9
		c0.27,11.56,0.25,23.13-0.02,34.68c-0.15,6.74-4.59,11.14-10.39,11.18c-6.06,0.04-10.31-4.6-10.6-11.71
		c-0.12-2.94-0.03-5.89-0.03-8.84C2248.77,841.44,2248.78,838.72,2248.79,836z"/>
	<path d="M2214.53,826.61c0-4.98-0.09-9.96,0.02-14.94c0.16-7.08,4.42-11.73,10.5-11.67c5.85,0.06,10.09,4.48,10.2,11.21
		c0.17,10.41,0.17,20.83,0,31.24c-0.11,6.86-4.15,11.16-10.08,11.29c-6.12,0.14-10.47-4.5-10.62-11.51
		C2214.44,837.03,2214.53,831.82,2214.53,826.61z"/>
</g>
<path d="M3212.86,1066.62c-0.06-9.22-4.59-16.76-13.08-21.8c-2.44-1.45-5.2-3.08-8.15-4.13c-3.67-1.3-4.36-3.53-4.34-7.19
	c0.12-34.84,0.21-76.16-0.01-118.38c-0.1-19.82-2.87-37.35-8.44-53.62c-8.51-24.81-21.7-41.63-40.33-51.42
	c-28.17-14.81-56.86-13.32-87.7,4.57c-1.87,1.08-3.99,2.18-5.96,2.14c-0.75-0.02-1.49-0.03-2.22-0.03
	c-27.73,0-45.57,12.98-54.5,39.62c-5.67,16.92-6.46,34.03-6.48,48.53c-0.01,7.9-0.03,15.8-0.05,23.7
	c-0.08,31.73-0.16,64.55,0.25,96.82c0.11,9.01-0.63,16.1-11.02,18.53c-0.68,0.16-1.25,0.57-1.8,0.97c-0.49,0.35-0.96,0.69-1.44,0.81
	c-2.22,0.53-3.25,0.31-3.71,0.03c-20.96-12.52-42.21-25.35-62.77-37.76l-8.42-5.08c-2.76-1.66-4.15-3.24-4.26-4.82
	c-0.12-1.63,1.12-3.48,3.78-5.65c10.84-8.85,17.11-18.37,19.18-29.1c1.46-7.58,1.88-15.46,2.29-23.09c0.21-3.88,0.42-7.88,0.77-11.8
	c0.22-2.46,0.58-4.96,1.78-6.61c12.54-17.39,17.3-36.83,14.14-57.76c-3.31-21.99-18.41-36.9-38.46-37.99
	c-5.84-0.32-10.07-2.08-14.59-6.07c-15.97-14.09-37.41-21-60.36-19.43c-24.1,1.64-47.74,12.72-61.71,28.92
	c-7.29,8.45-11.2,16.78-11.96,25.46c-2.54,29.16,4.25,43.21,9.57,51.25c5.5,8.3,7.52,16.55,6.99,28.49
	c-0.12,2.58-0.08,5.21-0.04,7.75c0.01,0.8,0.02,1.61,0.03,2.41c0.16,19.53,7.74,35.64,22.52,47.87c2.41,1.99,3.52,3.75,3.4,5.36
	c-0.12,1.61-1.48,3.17-4.16,4.78c-5.75,3.45-11.5,6.9-17.24,10.36c-16.2,9.73-32.94,19.8-49.47,29.59
	c-10.06,5.96-14.91,14.58-14.83,26.35c0.13,20.23,0.11,40.79,0.08,60.68c-0.01,8.39-0.02,16.78-0.02,25.16
	c0,10.81,2.49,13.3,13.29,13.3c40.35,0,80.71,0,121.06,0c20.42,0,40.84,0,61.26,0l160.75,0c48.24,0,96.48,0,144.72-0.01
	c8.13,0,11.76-3.08,11.78-9.97l0-0.94C3213,1127.65,3213.07,1096.88,3212.86,1066.62z M3161.74,1125.25
	c-0.34-5.36-3.89-9.01-8.85-9.1c-5.21-0.06-9.02,3.85-9.13,9.37c-0.11,5.7-0.09,11.3-0.06,17.22c0.01,2.35,0.02,4.72,0.02,7.12
	h-118.45c0-2.28,0-4.54,0.01-6.77c0.01-5.42,0.01-10.71-0.02-16c-0.02-3.77-1.08-6.77-3.04-8.69c-1.57-1.53-3.68-2.31-6.15-2.26
	c-5.49,0.11-8.8,4.12-8.85,10.74c-0.04,5.4-0.03,10.7-0.02,16.3c0,2.24,0.01,4.5,0.01,6.78h-32.85c-0.02-0.31-0.05-0.63-0.08-0.95
	c-0.09-1-0.18-2.04-0.18-3.06c-0.01-7.67,0-15.34,0-23.01c0.01-17.27,0.03-35.13-0.1-52.69c-0.04-5.6,1.96-8.87,6.89-11.29
	c15.23-7.48,30.73-15.25,45.72-22.78c5.51-2.76,11.04-5.54,16.6-8.32c8.34,19.38,22.13,29.25,41.01,29.34
	c19.12,0.09,33.06-9.78,41.47-29.33l10.66,5.31c9.18,4.58,18.31,9.12,27.44,13.68c3.07,1.53,6.13,3.07,9.19,4.61
	c5.25,2.64,10.68,5.37,16.04,8.01c4.02,1.98,5.89,4.73,5.88,8.65c-0.02,14.04-0.03,28.09-0.04,42.13
	c-0.01,12.96-0.02,25.93-0.04,38.89c0,0.1-0.07,0.28-0.17,0.5c-0.03,0.08-0.07,0.17-0.11,0.27h-32.77l0-18.26
	c0-0.64,0.01-1.27,0.02-1.91C3161.82,1128.29,3161.84,1126.75,3161.74,1125.25z M3098.96,1034.56c-8.8,6.21-18.28,6.55-27.42,0.97
	c-12.36-7.55-13.04-19.54-11.97-30.37h49.81C3111.35,1023.29,3104.86,1030.39,3098.96,1034.56z M3040.7,926.1
	c10.07-9.98,15.28-23.43,19.76-36.35c0.49-1.41,0.97-2.83,1.55-4.5l0.72-2.11c18.09,20.73,41.26,34.84,72.81,44.33
	c-0.12,2.72-0.17,5.48-0.22,8.16c-0.11,6.11-0.22,12.43-1.22,18.46c-3.21,19.33-20,33.6-39.92,33.93l-2.43,0.04
	c-7.77,0.14-15.81,0.29-23.47-0.95c-19.66-3.17-33.87-19.86-34.55-40.59C3033.47,938.44,3034.54,932.21,3040.7,926.1z
	 M3169.29,994.37c-0.01,11.15-0.02,22.29-0.01,33.44c0,0.27-0.06,0.56-0.16,1.04c-0.03,0.14-0.06,0.3-0.09,0.48l-6.92-3.47
	c-11.05-5.53-21.78-10.91-32.51-16.3c-0.35-0.18-1.43-0.72-1.79-1.4c-1.73-3.29,0.44-13.38,3.42-15.87
	c14.08-11.78,21.47-27.24,21.97-45.97c0.16-5.81,0.11-11.72,0.07-17.44c-0.01-2.01-0.03-4.03-0.04-6.04
	c-0.02-7.41-1.88-9.85-9.04-11.83c-22.22-6.15-40.01-14.86-54.39-26.64c-9.66-7.91-16.77-16.33-21.75-25.72
	c-1.95-3.68-4.38-7.01-8.86-7.01c-0.46,0-0.94,0.03-1.44,0.11c-5.65,0.82-7.01,5.36-8.33,9.76c-4.2,13.99-7.91,25.68-12.4,37.23
	c-3.46,8.92-9.17,16.5-16.96,22.52c-1.95,1.51-3.97,4.19-4.05,6.39l-0.09,2.5c-0.49,13.38-1,27.21,5.04,40.16
	c4.68,10.04,10.05,17,16.89,21.9c4.35,3.11,3.9,6.95,3.43,11.01c-0.14,1.2-0.28,2.43-0.29,3.63c0,1.08-2.2,2.93-5.46,4.62
	c-8.71,4.49-17.36,8.78-26.51,13.33c-2.99,1.48-6,2.98-9.04,4.49c-0.03-0.34-0.07-0.66-0.1-0.97c-0.11-0.98-0.2-1.82-0.2-2.65
	c0-11.01-0.02-22.02-0.05-33.04c-0.06-29.54-0.13-60.09,0.33-90.13c0.21-13.71,1.86-26.58,4.91-38.26
	c5.81-22.23,18.52-30.92,42.51-29.08c3.27,0.25,7.39-0.99,10.02-3.03c16.14-12.46,36.43-16.99,55.66-12.42
	c19.1,4.54,35.06,17.58,43.77,35.78c7.75,16.18,11.82,34.52,12.11,54.49C3169.36,938.1,3169.33,966.71,3169.29,994.37z
	 M2922.86,1126.12c-0.06-3.59-1.52-6.69-4.02-8.51c-2.12-1.54-4.71-1.94-7.29-1.14c-4.5,1.39-6.77,4.69-6.73,9.81
	c0.04,5.56,0.03,11.02,0.02,16.8c0,2.27-0.01,4.56-0.01,6.86h-135.51l0-6.56c0-5.35,0.01-10.64-0.01-15.92
	c-0.03-7.05-3.25-11.17-8.82-11.3c-2.49-0.05-4.55,0.69-6.12,2.22c-2.02,1.96-3.09,5.16-3.11,9.24c-0.02,5.15-0.01,10.3-0.01,15.58
	l0,6.67h-32.85c-0.02-0.27-0.05-0.54-0.08-0.81c-0.09-0.89-0.18-1.82-0.18-2.72c-0.01-8.2,0-16.4,0-24.6
	c0-17.27,0.01-35.12-0.07-52.69c-0.02-4.94,1.56-7.99,5.29-10.22c14.14-8.43,28.5-17.05,42.37-25.39
	c6.73-4.04,13.46-8.08,20.19-12.12c0.35-0.21,0.76-0.37,1.19-0.53c0.07-0.03,0.14-0.05,0.21-0.08
	c9.33,24.19,26.05,36.46,49.72,36.46c0.07,0,0.15,0,0.22,0c23.53-0.07,40.22-12.4,49.62-36.65c4.83,2.9,9.65,5.79,14.45,8.67
	c16.5,9.89,33.56,20.11,50.09,30.37c2.21,1.37,4.34,5.16,4.37,7.79c0.26,21.41,0.24,43.27,0.22,64.42
	c-0.01,6.01-0.01,12.04-0.01,18.08h-33.12c0-2.25,0.01-4.5,0.02-6.76C2922.92,1137.52,2922.94,1131.78,2922.86,1126.12z
	 M2872.08,839.95c2.75,2.07,5.93,4.15,8.58,3.86c10.41-1.12,18.5,1,24.03,6.32c8.01,7.69,8.96,20.29,8.34,29.5
	c-0.39,5.87-2.08,11.79-3.72,17.51c-0.71,2.49-1.45,5.06-2.07,7.6l-1.58-0.07l-7.54-11.32c-5.79-8.7-11.59-17.39-17.39-26.08
	c-3.04-4.55-5.33-6.58-7.93-7.03c-2.64-0.46-5.56,0.74-10.1,4.12c-25.19,18.74-47.81,30.05-71.17,35.59
	c-2.2,0.52-4.49,0.87-6.7,1.22c-2.27,0.35-4.62,0.71-6.9,1.26c-4.7,1.13-7.7-0.38-9.99-5.08c-6.16-12.58-8.37-26.26-6.58-40.67
	c1.45-11.64,10.21-19.17,18.59-25.01c25.35-17.64,60.16-17.8,82.76-0.38c1.62,1.25,3.1,2.75,4.53,4.21
	C2868.76,837.05,2870.33,838.64,2872.08,839.95z M2777.88,929.75c0.05-2.96,0.11-6.01,0.12-9.07c29.55-3.32,57.68-15.14,91.07-38.29
	c2.02,3.03,4.02,6.06,6.01,9.08c4.5,6.81,9.15,13.86,13.88,20.65c10.65,15.29,11.16,32.57,1.62,54.37
	c-5.15,11.76-15.68,19.39-28.17,20.39c-19.19,1.54-35.65,1.54-50.34,0c-17.92-1.88-32.51-17.77-33.95-36.97
	C2777.63,943.27,2777.75,936.7,2777.88,929.75z M2855.62,1033.58c-11.91,7.81-24.56,7.92-36.58,0.33
	c-10.34-6.53-15.7-16.47-15.53-28.77c3.42,0.11,6.8,0.23,10.16,0.36c8.12,0.31,15.78,0.6,23.61,0.6c0,0,0.01,0,0.01,0
	c7.71,0,15.28-0.29,23.28-0.6c3.33-0.13,6.68-0.26,10.07-0.37C2870.83,1017.18,2865.65,1027.01,2855.62,1033.58z"/>
<g>
	<path d="M2945.16,336.79c-36.53-0.25-79.87-14.33-120.68-37.04c-45.7-25.43-85.35-58.41-119.99-97.51
		c-5.55-6.26-6.03-10.78-1.01-16.37c48.03-53.62,103.34-97.09,171.91-121.58c65.1-23.25,128.66-17.33,190.48,11.83
		c55.17,26.02,101.66,63.58,142,109.02c5.44,6.13,5.52,10.39,0.2,16.35c-45.62,51.05-98.3,92.4-162.47,117.88
		C3017.33,330.61,2985.3,336.77,2945.16,336.79z M3074.86,193.67c-0.03-65.69-53.5-119.16-119.15-119.14
		c-65.1,0.02-118.69,53.78-118.64,119.01c0.04,65.51,53.78,118.96,119.47,118.83C3021.31,312.25,3074.89,258.49,3074.86,193.67z
		 M2724.47,193.86c38.29,40.74,81.36,75.1,132.3,98.98c-54.26-66.41-54.24-132.45-0.47-198.24
		C2819.88,108.35,2747.59,162.54,2724.47,193.86z M3055.15,94.02c53.82,65.9,54.37,131.62,0.2,198.79
		c51.64-24.49,94.35-58.6,132.52-99.36C3149.1,152.22,3106.05,117.95,3055.15,94.02z"/>
	<path d="M3018.49,193.95c-0.43,34.52-28.98,62.49-63.32,62.03c-34.3-0.45-62.37-29.41-61.71-63.65
		c0.66-33.83,29.09-61.68,62.69-61.4C2990.67,131.22,3018.92,159.78,3018.49,193.95z M2998.02,193.85
		c0.16-22.9-18.59-42.07-41.5-42.43c-23.07-0.36-42.57,18.85-42.59,41.96c-0.02,22.87,18.88,41.92,41.81,42.12
		C2978.49,235.71,2997.86,216.62,2998.02,193.85z"/>
</g>
<path d="M1759.67,1500.8c-3.41-1.15-7.28-2.45-16.51,6.78l-35.73,35.72c-65.13,65.09-132.47,132.39-199.15,199.26
	c-5.61,5.62-8.32,10.05-8.27,13.53c0.04,3.58,2.92,8.23,8.79,14.2c10.24,10.42,20.83,20.94,31.07,31.12l0.66,0.65
	c5.1,5.07,10.21,10.15,15.3,15.24c15.03,15.03,30.05,30.07,45.07,45.11l0.18,0.18c46.06,46.13,93.7,93.83,140.87,140.34
	c3.34,3.29,8.63,9.06,13.78,9.06c7.74,0,11.66-5.29,13.05-7.93c3.19-6.06,2.31-9.24-0.42-12.99c-3.55-4.86-8.41-9.72-13.57-14.87
	l-26.28-26.32c-54.01-54.1-121.7-121.34-176.63-176.28c-4.84-4.84-11.71-11.49-11.71-17.71c0-6.67,6.33-12.07,9.8-15.44
	c28.93-28.08,71.19-70.48,99.24-98.66l0.16-0.16c10.43-10.48,20.86-20.96,31.31-31.41c25.08-25.08,50.15-50.17,75.23-75.26
	l7.52-7.52c8.04-8.04,7.34-12.12,6.97-14.3C1769.21,1506.38,1766.31,1503.04,1759.67,1500.8z"/>
<path d="M2011.12,2011.2c3.41,1.15,7.28,2.45,16.51-6.78l35.73-35.72c65.13-65.09,132.47-132.39,199.15-199.26
	c5.61-5.62,8.32-10.05,8.27-13.53c-0.04-3.58-2.92-8.23-8.79-14.2c-10.24-10.42-20.83-20.94-31.07-31.12l-0.66-0.65
	c-5.1-5.07-10.21-10.15-15.3-15.24c-15.03-15.03-30.05-30.07-45.07-45.11l-0.18-0.18c-46.06-46.13-93.7-93.83-140.87-140.34
	c-3.34-3.29-8.63-9.06-13.78-9.06c-7.74,0-11.66,5.29-13.05,7.93c-3.19,6.06-2.31,9.24,0.42,12.99c3.55,4.86,8.41,9.72,13.57,14.87
	l26.28,26.32c54.01,54.1,121.7,121.34,176.63,176.28c4.84,4.84,11.71,11.49,11.71,17.71c0,6.67-6.33,12.07-9.8,15.44
	c-28.93,28.08-71.19,70.48-99.24,98.66l-0.16,0.16c-10.43,10.48-20.86,20.96-31.31,31.41c-25.08,25.08-50.15,50.17-75.23,75.26
	l-7.52,7.52c-8.04,8.04-7.34,12.12-6.97,14.3C2001.58,2005.62,2004.48,2008.96,2011.12,2011.2z"/>
<path d="M2400.8,1631.12c-1.15,3.41-2.45,7.28,6.78,16.51l35.72,35.73c65.09,65.13,132.39,132.47,199.26,199.15
	c5.62,5.61,10.05,8.32,13.53,8.27c3.58-0.04,8.23-2.92,14.2-8.79c10.42-10.24,20.94-20.83,31.12-31.07l0.65-0.66
	c5.07-5.1,10.15-10.21,15.24-15.3c15.03-15.03,30.07-30.05,45.11-45.07l0.18-0.18c46.13-46.06,93.83-93.7,140.34-140.87
	c3.29-3.34,9.06-8.63,9.06-13.78c0-7.74-5.29-11.66-7.93-13.05c-6.06-3.19-9.24-2.31-12.99,0.42c-4.86,3.55-9.72,8.41-14.87,13.57
	l-26.32,26.28c-54.1,54.01-121.34,121.7-176.28,176.63c-4.84,4.84-11.49,11.71-17.71,11.71c-6.67,0-12.07-6.33-15.44-9.8
	c-28.08-28.93-70.48-71.19-98.66-99.24l-0.16-0.16c-10.48-10.43-20.96-20.86-31.41-31.31c-25.08-25.08-50.17-50.15-75.26-75.23
	l-7.52-7.52c-8.04-8.04-12.12-7.34-14.3-6.97C2406.38,1621.58,2403.04,1624.48,2400.8,1631.12z"/>
<path d="M3611.2,1879.67c1.15-3.41,2.45-7.28-6.78-16.51l-35.72-35.73c-65.09-65.13-132.39-132.47-199.26-199.15
	c-5.62-5.61-10.05-8.32-13.53-8.27c-3.58,0.04-8.23,2.92-14.2,8.79c-10.42,10.24-20.94,20.83-31.12,31.07l-0.65,0.66
	c-5.07,5.1-10.15,10.21-15.24,15.3c-15.03,15.03-30.07,30.05-45.11,45.07l-0.18,0.18c-46.13,46.06-93.83,93.7-140.34,140.87
	c-3.29,3.34-9.06,8.63-9.06,13.78c0,7.74,5.29,11.66,7.93,13.05c6.06,3.19,9.24,2.31,12.99-0.42c4.86-3.55,9.72-8.41,14.87-13.57
	l26.32-26.28c54.1-54.01,121.34-121.7,176.28-176.63c4.84-4.84,11.49-11.71,17.71-11.71c6.67,0,12.07,6.33,15.44,9.8
	c28.08,28.93,70.48,71.19,98.66,99.24l0.16,0.16c10.48,10.43,20.96,20.86,31.41,31.31c25.08,25.08,50.17,50.15,75.26,75.23
	l7.52,7.52c8.04,8.04,12.12,7.34,14.3,6.97C3605.62,1889.21,3608.96,1886.31,3611.2,1879.67z"/>
<path class="st1" d="M592,2286c-1.24-5.47-2.08-11.07-3.8-16.39c-12.56-38.92-39.07-61.85-79.43-68.72
	c-0.95-0.16-1.85-0.58-2.77-0.88c28.67,0,57.33,0,86,0C592,2228.67,592,2257.33,592,2286z"/>
<g>
	<path d="M81,2200c0.95,1.28,1.75,2.71,2.87,3.82c125.11,125.14,250.24,250.27,375.39,375.36c1.28,1.28,2.92,2.18,4.39,3.26
		c-0.27,0.45-0.54,0.89-0.82,1.34c-57.66,0-115.33,0-173.95,0c11.72,23.49,23.04,46.18,34.63,69.4
		c-27.03,13.52-53.73,26.88-80.9,40.48c-14.61-29.18-29.01-57.96-43.72-87.33c-39.61,35.2-78.77,70-118.89,105.66
		c0-171.37,0-341.68,0-511.99C80.33,2200,80.67,2200,81,2200z"/>
	<path d="M592,2307c-1.15,5.5-2.11,11.04-3.5,16.48c-4.9,19.15-14.51,35.66-28.4,49.68c-9.26,9.35-18.47,18.76-27.98,27.85
		c-3.18,3.04-4.53,6.15-4.18,10.46c0.32,3.94,0.07,7.93,0.07,12.22c-21.41,0-42.45,0-63.78,0c0-12.08-0.43-24.04,0.16-35.95
		c0.37-7.51,4.35-13.84,9.73-19.19c13.58-13.51,27.25-26.94,40.6-40.68c10.47-10.77,15.4-23.72,12.38-38.79
		c-3.18-15.87-18.12-26.5-34.29-24.97c-15.95,1.51-28.51,15.05-28.76,31.25c-0.16,10.64-0.03,21.29-0.03,32.29
		c-21.34,0-42.38,0-63.42,0c-2.86-36.77-0.84-72.1,28.03-99.98c15.35-14.82,33.43-23.9,54.6-26.8c0.95-0.13,1.85-0.58,2.78-0.88
		c6.67,0,13.33,0,20,0c0.92,0.3,1.83,0.72,2.77,0.88c40.36,6.87,66.86,29.8,79.43,68.72c1.72,5.32,2.56,10.92,3.8,16.39
		C592,2293,592,2300,592,2307z"/>
	<path d="M527.78,2456.34c0,21.3,0,42.22,0,63.41c-21.16,0-42.08,0-63.4,0c0-20.97,0-42.01,0-63.41
		C485.3,2456.34,506.34,2456.34,527.78,2456.34z"/>
</g>
<g>
	<path d="M956.12,2165.64c-0.11,0-0.25,0-0.36,0c-142.31,0.2-257.94,116.06-257.76,258.28c0.09,68.9,27.01,133.68,75.81,182.41
		c48.72,48.64,113.36,75.42,182.06,75.42c0.12,0,0.24,0,0.35,0c68.88-0.09,133.65-27.03,182.38-75.85s75.5-113.61,75.4-182.44
		C1213.79,2281.21,1098.15,2165.64,956.12,2165.64z M1190.77,2424.43c-0.1,62.65-24.68,121.5-69.19,165.71
		c-44.4,44.1-103.33,68.37-165.99,68.37c-0.16,0-0.33,0-0.5,0c-129.07-0.26-233.98-105.54-233.86-234.68
		c0.06-63.12,24.56-122.24,68.99-166.48c44.36-44.17,103.53-68.48,166.67-68.48c0.1,0,0.21,0,0.31,0
		c62.38,0.08,121.06,24.65,165.24,69.2C1166.6,2302.62,1190.88,2361.7,1190.77,2424.43z"/>
	<path d="M967.62,2537.28l0-102.06c0-4.65,0-9.3,0.01-13.95c0.01-11.37,0.02-23.12-0.03-34.69c-0.04-7.7-4.48-12.79-11.32-12.95
		c-3.15-0.09-5.9,0.94-7.99,2.93c-2.45,2.35-3.8,5.85-3.89,10.13c-0.02,0.98-0.02,1.97-0.01,2.95l0.01,142.98
		c0,0.89-0.01,1.78-0.02,2.67c-0.03,2.11-0.06,4.29,0.08,6.46c0.41,6.59,5.26,11.34,11.54,11.34c0.03,0,0.07,0,0.1,0
		c6.3-0.05,11.03-4.77,11.5-11.47c0.08-1.06,0.06-2.11,0.04-3.11C967.62,2538.1,967.62,2537.69,967.62,2537.28z"/>
	<path d="M956.1,2311.11c-0.03,0-0.07,0-0.1,0c-11.49,0-21,9.3-21.22,20.78c-0.11,5.74,2.05,11.16,6.06,15.28
		c4,4.1,9.34,6.37,15.04,6.4c0.03,0,0.07,0,0.1,0c11.49,0,21.01-9.31,21.24-20.79c0.11-5.71-2.04-11.13-6.05-15.24
		C967.16,2313.41,961.81,2311.13,956.1,2311.11z"/>
</g>
</svg>
